<?xml version="1.0" encoding="utf-8" ?>
<svg xmlns="http://www.w3.org/2000/svg" xmlns:xlink="http://www.w3.org/1999/xlink" width="1024" height="1024">
	<path fill="#121212" d="M-0 -0L1024 0L1024 1024L-0 1024L0 -0Z"/>
	<path fill="#FEFEFE" d="M645.386 472.511L645.598 472.116C646.57 470.229 646.77 467.191 647.755 465.624C648.105 465.066 649.488 464.105 650.041 463.641C653.866 460.428 659.035 457.321 663.757 455.682C667.343 454.437 671.418 454.228 674.86 456.238C676.82 457.382 678.592 459.73 680.31 461.25L687.798 467.433C688.268 467.839 689.6 468.772 689.882 469.25C690.141 469.687 690.061 470.25 690.15 470.75C687.563 474.493 681.448 476.431 677.102 477.17L661.553 478.632C657.12 477.642 648.034 476.481 645.386 472.511Z"/>
	<path fill="#FEFEFE" d="M354.997 560.725C357.599 562.013 360.161 563.24 362.932 564.125C365.055 564.804 367.833 565.022 369.707 566.222C373.637 568.739 375.996 573.029 380.25 575.436C382.524 576.723 383.963 577.541 384.74 580.198C385.457 582.65 385.593 585.198 386.377 587.651C390.478 587.182 396.216 585.806 399.664 588.694C401.127 589.919 401.651 591.344 401.731 593.217C401.951 598.394 396.35 604.791 393.504 608.954C390.386 609.277 386.691 609.739 383.75 608.473C370.689 602.848 360.152 573.24 354.997 560.725Z"/>
	<path fill="#12C6FC" d="M614.787 188.295C633.961 194.163 654.406 200.512 671.322 211.507L661.86 227.287C661.445 228.124 660.989 228.633 660.326 229.287C643.623 221.26 626.517 213.607 608.64 208.614L614.787 188.295Z"/>
	<path fill="#FEFEFE" d="M729.177 502.715L726.905 501.127C722.787 498.474 717.199 496.064 712.25 497.513C708.794 498.525 705.765 500.2 702.181 500.927C694.522 502.482 686.385 495.392 680.25 491.389C677.946 489.886 675.758 488.007 674.981 485.25C678.474 478.797 689.559 477.341 695.5 473.988C696.478 473.436 697.114 472.84 697.431 471.751C699.304 465.322 693.295 458.922 689.054 454.906C687.419 453.357 685.167 451.631 684.07 449.656C683.465 448.565 683.351 448.512 683.75 447.291C685.278 446.813 687.601 446.665 689.034 447.435C690.915 448.445 692.624 450.254 694.183 451.7C699.399 456.539 705.002 463.114 706.864 470.122C707.703 473.283 707.093 477.18 708.201 480.119C708.58 481.123 708.828 481.157 709.75 481.504C713.985 479.307 716.855 475.285 719.806 471.658C722.271 475.008 723.365 479.614 724.822 483.492C726.463 489.512 728.999 496.475 729.177 502.715Z"/>
	<path fill="#FEFEFE" d="M560.02 154.709C566.989 154.122 574.788 156.853 580.401 160.907C586.732 165.479 591.335 173.018 592.403 180.761C593.545 189.034 591.545 198.255 586.238 204.835C580.372 212.107 572.272 215.573 563.192 216.575C555.294 216.598 547.939 215.224 541.564 210.255C535.306 205.376 530.367 197.606 529.519 189.605C528.666 181.551 530.538 172.931 535.756 166.577C542.047 158.916 550.392 155.627 560.02 154.709Z"/>
	<path fill="#08C" d="M177.157 389.582C185.643 388.802 193.918 389.743 201.269 394.331C208.993 399.153 214.746 406.161 216.755 415.137C218.889 424.673 217.327 434.348 212.007 442.556C206.589 450.915 198.678 455.899 188.987 457.874C181.177 459.108 173.897 458.422 166.819 454.67C158.897 450.471 152.099 443.121 149.581 434.414L149.335 433.527L148.867 431.875C146.86 423.699 148.409 412.619 153.053 405.535C158.856 396.685 167.016 391.852 177.157 389.582Z"/>
	<path fill="#064DB4" d="M837.826 576.678C846.349 576.176 853.928 578.097 861.047 582.886C868.195 587.695 873.595 595.795 875.199 604.25C877.007 613.785 875.687 622.9 870.088 630.976C863.761 640.103 855.095 644.55 844.387 646.484C841.28 646.576 837.812 646.808 834.768 646.174C830.826 645.354 827.4 644.224 823.84 642.291C816.098 638.086 809.506 630.274 807.042 621.792L806.829 621.031L806.096 617.75C804.793 607.83 806.241 598.258 812.604 590.246C819.078 582.095 827.639 577.908 837.826 576.678Z"/>
	<defs>
		<linearGradient id="gradient_0" gradientUnits="userSpaceOnUse" x1="869.85498" y1="556.94702" x2="802.11041" y2="345.16342">
			<stop offset="0" stop-color="#0759C4"/>
			<stop offset="1" stop-color="#07B5FA"/>
		</linearGradient>
	</defs>
	<path fill="url(#gradient_0)" d="M812.475 340.223C823.058 354.471 831.841 371.475 838.926 387.648C862.728 441.983 871.797 500.661 866.507 559.663L853.348 558.404L844.587 557.503C849.38 499.135 841.245 441.478 816.395 388.115C810.775 376.045 803.755 364.91 797.497 353.199C802.987 349.253 807.843 345.132 812.475 340.223Z"/>
	<path fill="#08C" d="M162.274 471.526C169.564 473.61 176.186 474.826 183.719 475.5C182.563 490.785 180.532 505.824 180.231 521.199C180.062 529.84 180.743 538.399 181.447 547C184.005 578.279 191.605 608.608 203.623 637.578C206.755 645.127 209.956 652.681 213.792 659.903L221.487 673.851C222.811 676.214 224.687 678.838 225.419 681.412L217.931 686.051L206.623 693.058C199.027 679.796 191.673 666.372 185.566 652.346C165.868 607.11 156.303 557.061 158.594 507.74C159.158 495.6 160.712 483.566 162.274 471.526Z"/>
	<path fill="#12C6FC" d="M495.025 171.782L503.017 171.441L503.047 194.005C472.367 194.283 440.606 200.03 411.389 209.196C353.552 227.34 300.581 261.499 260.764 307.233C242.5 328.212 227.264 351.149 214.43 375.786L206.124 371.714L195.344 366.989C197.457 362.207 200.108 357.672 202.548 353.051C214.881 329.696 230.802 307.846 248.45 288.207C311.205 218.375 401.534 176.719 495.025 171.782Z"/>
	<path fill="#064DB4" d="M811.57 656.652L832.516 665.433L828.535 673.5C791.249 743.174 730.95 800.685 659.183 833.826C642.031 841.747 623.973 848.071 605.881 853.466C589.978 858.208 573.621 861.019 557.19 863.204C528.736 866.987 500.098 867.653 471.549 864.374C425.514 859.086 380.972 844.197 340.295 822.212L323.799 812.589C327.694 806.559 331.581 800.731 334.568 794.178L367.516 811.529C398.545 826.171 431.775 836.411 465.75 841.293C517.738 848.764 573.22 842.549 622.605 824.788C686.064 801.967 740.472 761.182 780.593 707.091C792.439 691.121 803.096 674.671 811.57 656.652Z"/>
	<path fill="#08C" d="M251.377 692.189C268.766 690.437 285.59 694.943 299.693 705.227C314.445 715.984 323.209 732.364 325.913 750.147C328.586 767.731 323.547 786.587 312.96 800.837C301.721 815.964 286.087 824.755 267.587 827.404L266.137 827.647C250.347 830.019 232.1 824.505 219.374 815.102C204.844 804.367 194.548 788.934 191.925 770.906C189.299 752.851 194.098 732.842 205.158 718.257C216.521 703.273 232.887 694.622 251.377 692.189Z"/>
	<path fill="#08C" d="M737.254 188.686L737.284 188.675C758.481 186.866 779.609 192.462 796.594 205.519C814.034 218.924 825.98 239.625 828.677 261.467C831.449 283.908 825.719 307.75 811.673 325.628C797.431 343.756 776.235 354.435 753.622 357.247L753.341 357.318C732.665 360.326 709.242 351.887 693.082 339.364C674.91 325.282 664.712 302.6 661.955 280.25C659.345 259.094 666.089 237.325 679.106 220.676C693.774 201.916 713.87 191.479 737.254 188.686Z"/>
	<path fill="#121212" d="M743.589 204.204L754.803 204.676C772.477 206.992 788.755 217.049 799.67 230.948C810.521 244.766 815.406 262.819 813.2 280.301C811.467 294.036 806.708 307.499 797.279 317.926C784.25 332.336 767.328 340.57 747.91 341.603C730.163 342.185 715.219 336.687 701.602 325.259C688.574 314.326 678.912 295.631 677.592 278.611C676.097 259.34 681.986 241.456 694.669 226.885C707.375 212.288 724.591 205.438 743.589 204.204Z"/>
	<path fill="#08C" d="M742.146 215.702C745.821 215.465 749.491 215.689 753.141 216.165C767.846 218.079 780.972 225.567 789.939 237.414C799.698 250.309 803.591 264.89 801.558 281C800.198 291.774 795.756 301.819 788.71 310.091C778.345 322.261 763.919 328.966 748.124 330.236C734.513 331.518 719.843 325.819 709.361 317.412C697.998 308.299 690.315 293.377 688.705 278.998C687.018 263.925 691.424 248.794 701.014 237.077C712.029 223.618 725.059 217.417 742.146 215.702Z"/>
	<path fill="#FEFEFE" d="M409.279 569.472C404.946 571.269 396.851 578.32 392.478 577.408C390.619 577.021 389.568 575.548 388.615 574.013C387.371 572.011 386.208 569.483 385.833 567.133C385.405 564.448 386.258 558.913 384.902 556.8C381.855 552.048 373.534 555.148 368.801 553.897C367.03 553.429 365.095 552.421 364.306 550.678C363.699 549.339 363.249 547.892 363.948 546.5C365.256 543.894 368.887 541.883 371.5 540.88C375.862 539.206 380.757 537.355 385.258 536.196C386.027 535.997 387.867 535.357 388.605 535.432C391.179 535.695 396.135 539.923 398.281 541.371C400.998 543.205 403.946 544.897 406.953 546.213C411.437 548.176 416.507 549.8 421.463 549.421C424.021 549.226 426.57 547.799 428.92 546.844L442.163 541.72L424.34 539.868C420.081 539.442 415.908 539.247 411.815 537.878C405.482 535.76 401.157 530.992 394.135 530.05C388.791 529.333 385.846 531.984 380.962 532.902C379.103 533.252 377.438 532.899 375.593 532.703C368.011 531.899 365.05 532.015 360.818 538.607C359.515 540.637 358.104 543.609 356.058 544.966C354.578 545.948 352.843 546.256 351.118 545.844C347.52 544.984 344.922 541.354 343.136 538.326C339.238 531.718 337.183 522.845 339.206 515.319L339.44 514.5C340.33 511.312 341.764 507.473 344.833 505.781C347.506 504.308 350.146 504.972 352.835 505.908C354.309 506.421 356.293 505.493 357.752 504.983C361.148 503.795 364.506 502.233 368.172 502.678C378.662 503.951 381.974 510.153 388.084 517.41C389.507 519.1 390.554 520.216 392.75 520.422C394.734 518.018 393.713 514.061 393.564 511.181C393.445 508.892 393.077 505.993 393.601 503.758C394.795 498.668 399.416 492.146 403.676 489.25C407.534 486.628 411.331 485.454 414.489 481.655C418.685 476.607 420.552 469.167 425.149 464.542C427.527 462.151 431.93 460.983 434.921 459.331C437.831 457.724 440.463 455.696 443.437 454.18C443.99 453.898 445.313 453.064 445.87 452.984C446.006 452.965 447.413 453.671 447.581 453.744C449.813 454.724 453.698 456.743 456.145 456.382C457.48 456.185 458.791 455.744 459.641 454.645C460.612 453.39 460.519 451.595 460.245 450.096C459.17 444.202 449.439 443.214 445.25 439.988C443.946 438.983 443.423 438.328 443.177 436.75C447.26 433.043 456.552 429.322 462.068 429.304C466.685 429.289 472.04 431.091 473.676 435.903C474.894 439.483 474.696 442.387 477.54 445.25C480.174 446.26 482.894 445.83 485.603 445.274C488.047 444.772 491.028 444.165 492.44 442C491.389 437.237 488.075 433.429 486.762 428.832C486.306 427.234 486.723 425.616 486.786 424C486.905 420.939 486.473 416.807 484.247 414.474C483.266 413.446 481.07 412.812 479.735 412.243C476.942 411.052 474.284 409.296 472.661 406.653C470.229 402.693 470.787 396.559 467.9 393.006C466.875 391.744 465.5 391.538 464 391.216C460.028 392.087 460.132 396.245 457.211 397.774C456.567 398.111 455.803 397.814 455.143 397.633C450.372 396.329 449.291 390.179 447.047 386.5C445.727 384.335 443.048 382.682 440.578 382.182C436.722 381.403 432.12 382.247 428.841 384.393C426.501 385.924 423.755 389.215 423.231 392.098C423.121 392.706 423.712 394.511 423.838 395.187C424.408 398.237 424.702 400.924 424.012 404C423.632 405.697 422.932 407.517 421.963 408.969C420.003 411.905 417.19 414.286 414.979 417.038C413.612 418.74 412.228 422.06 410.372 423.115C409.449 423.64 408.727 423.152 407.75 422.876C403.926 419.146 406.048 415.686 403.999 411.5C402.269 409.723 400.138 409.348 397.824 408.75L384.208 405.879C381.105 405.3 378.49 404.486 376.723 401.703C374.673 398.473 374.161 392.212 374.992 388.5C375.688 385.391 378.067 383.097 380.75 381.541C384.212 379.533 401.778 373.227 404.907 374.965C407.974 376.669 410.239 381.021 413.767 381.774C415.076 382.053 415.205 381.773 416.25 381.055C416.608 380.098 416.94 379.128 416.882 378.09C416.249 366.742 403.321 370.292 396.673 365.54C393.63 363.364 393.497 358.501 390.75 355.922C388.378 353.696 383.408 352.636 380.291 353.744C378.728 354.3 377.332 355.278 375.721 355.736C374.36 356.123 371.248 356.058 370.211 356.663C369.24 357.23 368.481 358.636 367.503 359.165C366.013 359.97 362.937 360.01 361.214 360.352C357.064 361.175 353.389 362.795 349.071 362.88C346.915 362.923 346.095 362.278 344.594 360.78C342.823 359.015 341.987 358.511 339.485 358.129C338.703 358.009 338.642 357.604 338.169 357L338.491 354.25C338.787 353.005 339.222 352.473 340.25 351.78C342.736 355.182 347.878 358.105 351.3 360.77L352.81 360.443C359.12 358.855 362.481 356.457 365.803 350.91C366.697 351.675 367.683 352.589 368.75 353.106C370.638 354.021 373.095 353.923 375 353.057C376.326 352.455 377.116 352.09 377.651 350.75C376.422 348.547 373.423 346.579 371.588 344.75C371.895 343.466 372.481 342.746 373.25 341.702C376.391 340.351 376.941 339.955 378.25 336.769L377.75 335.961C371.641 334.011 364.506 334.814 358.625 337.125C357.006 337.76 354.133 339.309 352.448 339.225C350.667 339.135 349.361 337.595 348.475 336.25C348.587 333.435 351.008 331.521 352.997 329.696C355.923 327.01 359.318 324.796 362.554 322.502C368.689 318.152 374.834 314.05 381.38 310.341C423.418 286.528 470.263 275.06 518.503 276.818C573.053 278.805 624.206 298.628 666.585 332.941C673.244 338.332 680.144 343.417 686.004 349.711C682.256 350.298 677.6 350.747 674.25 352.566C669.774 354.996 667.069 360.713 665.277 365.211C664.198 367.92 662.98 370.755 660.952 372.899C657.619 376.423 651.431 377.202 648.791 380.997C648.128 381.949 647.975 383.012 648.172 384.133C649.494 391.644 660.295 392.213 666.316 392.4C667.525 392.437 670.259 392.165 671.267 392.522C671.736 392.688 673.471 395.005 673.925 395.486C675.304 396.946 676.818 398.181 678.518 399.25C681.697 401.249 684.929 402.335 688.694 401.276C690.699 400.712 692.593 399.13 693.477 397.25C695.721 392.476 691.368 388.682 689.871 384.422C688.144 379.507 689.706 373.657 692.037 369.134C693.907 371.32 695.717 373.521 697.039 376.093C699.056 380.02 699.787 386.428 704 388.444C705.491 387.805 706.38 387.551 708 387.526C710.303 389.668 711.385 393.942 712.457 396.883C710.358 397.44 707.6 397.887 705.747 399.049C701.702 401.586 699.469 408.303 696.375 412.071C693.825 412.928 689.69 412.596 686.974 412.394C677.489 411.689 676.57 406.304 670.889 400.608C669.562 399.277 668.468 399.544 666.75 399.578C665.007 400.68 663.823 401.966 662.457 403.5C661.355 406.501 662.422 411.401 662.731 414.592C658.677 419.16 649.584 420.813 644.178 423.347C637.704 426.382 635.464 430.469 633.196 436.924C634.198 440.123 636.874 443.784 638.475 446.817C629.332 445.004 620.597 442.495 611.263 441.423C576.251 437.404 539.634 446.543 510.412 466.177C481.868 485.355 463.016 517.886 456.517 551.25L453.379 574.767L446.994 572.896C440.929 571.968 434.125 571.279 428.25 573.553C427.204 573.957 424.659 575.569 423.728 575.622C423.323 575.645 423.133 575.069 422.831 574.797C421.893 573.953 420.934 573.107 419.893 572.39C416.686 570.18 413.067 569.738 409.279 569.472Z"/>
	<path fill="#121212" d="M414.779 316.025C416.055 315.899 416.975 315.857 418.25 316.119L418.25 316.955C416.163 318.197 413.998 318.937 411.721 319.744C410.463 319.967 409.928 319.868 408.75 319.38L408.615 318.571L414.779 316.025Z"/>
	<path fill="#121212" d="M402.315 335.548C404.22 335.371 404.881 335.078 406.468 336.25C407.182 337.941 407.291 338.102 406.912 340C405.71 341.367 405.02 341.65 403.25 342.011C402.041 342.063 400.592 342.178 399.5 341.544C398.256 340.821 398.121 340.013 397.715 338.75C398.72 337.193 400.722 336.411 402.315 335.548Z"/>
	<path fill="#121212" d="M474.973 356.25C476.659 356.193 476.86 356.105 478.25 357.018C478.363 357.482 478.447 357.706 478.462 358.161C478.571 361.406 475.839 365.264 473.75 367.537C472.753 368.045 472.727 368.063 471.63 367.861C470.868 366.778 470.425 365.597 470.497 364.25C470.618 362.004 473.206 357.651 474.973 356.25Z"/>
	<path fill="#121212" d="M406.869 323.682C408.499 323.412 409.626 323.371 411.25 323.705C412.388 324.757 412.589 324.738 412.774 326.25C411.703 327.655 408.297 330.304 406.545 330.64C404.201 331.088 401.163 330.126 398.754 330.831C397.176 331.292 394.396 333.987 393.034 335.096L390.25 335.505C388.664 335.503 387.897 334.812 386.75 333.865C386.391 332.586 386.26 331.92 387.048 330.75C390.909 325.018 400.709 324.43 406.869 323.682Z"/>
	<path fill="#121212" d="M613.927 404.25C614.874 404.068 615.584 403.922 616.545 404.126C618.501 404.539 625.101 408.749 625.952 410.556C626.718 412.184 626.792 415.353 626.015 417C624.945 419.271 621.855 420.588 619.675 421.448L615.908 422.208C613.628 422.597 610.233 423.146 608.264 421.75C608.09 421.285 607.963 421.044 607.967 420.5C607.985 418.32 609.641 415.642 610.432 413.629C611.528 410.838 612.025 406.422 613.927 404.25Z"/>
	<path fill="#08C" d="M409.279 569.472C410.666 568.427 412.18 567.166 413.788 566.495C418.359 564.585 424.907 564.38 429.852 564.014C431.949 563.86 434.436 563.435 436.512 563.803C437.152 563.917 437.677 564.196 438.25 564.482L439.068 564.887C442.271 566.538 445.892 569.346 446.994 572.896C440.929 571.968 434.125 571.279 428.25 573.553C427.204 573.957 424.659 575.569 423.728 575.622C423.323 575.645 423.133 575.069 422.831 574.797C421.893 573.953 420.934 573.107 419.893 572.39C416.686 570.18 413.067 569.738 409.279 569.472Z"/>
	<path fill="#121212" d="M394.093 341.75L395.75 341.677C397.975 343.854 398.139 346.595 399.748 349.185C401.855 352.577 405.144 355.136 407.62 358.25C408.899 359.859 411.621 363.666 411.413 365.75C408.702 367.09 405.567 366.438 402.759 365.75C401.233 365.081 398.888 364.19 397.586 363.175C395.389 361.463 394.39 355.98 392.327 353.551C389.985 350.795 387.125 350.727 383.75 350.38L383.444 349.5L384.405 347.489C386.411 343.713 390.29 342.866 394.093 341.75Z"/>
	<path fill="#121212" d="M415.657 353.582C414.262 351.515 411.284 351.235 410.066 348.75C408.557 345.672 413.523 335.479 414.956 332.269L418.98 331.291C423.736 330.248 427.942 330.453 432.75 330.963C434.352 331.133 436.386 331.11 437.75 331.988L437.864 333.5C436.141 335.769 433.257 335.975 430.883 337.504C427.623 339.603 427.225 342.687 424.807 345.233C423.301 346.818 418.71 349.75 418.278 351.667L420.134 352.269C421.204 353.371 421.601 353.422 421.589 355.017C421.569 357.763 421.056 360.39 419.855 362.863C418.716 363.722 418.196 364.087 416.726 364.25C415.358 363.357 415.181 363.222 414.496 361.75L415.657 353.582Z"/>
	<path fill="#121212" d="M583.672 363.095L591.512 363.165C594.831 363.439 602.799 363.656 604.691 366.446C605.427 367.53 605.625 368.815 605.333 370.078C604.484 373.759 598.92 377.253 595.871 379.151L594.806 379.66C590.401 381.478 584.858 381.372 580.515 379.361C578.141 378.261 575.405 376.097 574.671 373.458C574.112 371.444 574.565 368.459 575.704 366.697C577.285 364.251 581.074 363.622 583.672 363.095Z"/>
	<path fill="#121212" d="M626.09 390.25L627.048 390.002C628.555 389.737 629.974 390.098 631.018 391.25C632.349 392.718 633.202 394.864 634.514 396.463C638.255 401.026 643.809 404.487 643.551 411.04C643.294 417.584 639.298 422.027 634.75 426.116L634.874 427.053L634.487 428.891C634.021 430.24 633.751 430.877 632.5 431.518L631.815 431.009C627.408 427.517 630.696 418.364 630.906 413.599C630.986 411.776 630.634 409.856 630.369 408.054C627.725 406.714 624.56 404.724 623.133 402.005C621.872 399.603 621.72 396.006 622.581 393.478C623.243 391.537 624.352 391.028 626.09 390.25Z"/>
	<path fill="#121212" d="M443.727 335.75C444.318 335.619 444.898 335.293 445.5 335.358C446.174 335.432 448.879 337.485 449.652 337.964C453.084 340.093 456.851 341.694 460.217 343.877C463.63 346.09 466.096 349.299 466.961 353.303L467.099 354C467.82 357.531 466.88 361.118 467.158 364.7C467.483 368.908 469.236 373.686 468.933 377.816C468.75 380.325 467.882 382.8 465.958 384.372L464.836 384.25C464.695 383.082 464.63 381.557 464.123 380.5C463.809 379.844 462.823 378.762 462.153 378.561C460.865 378.174 459.539 378.705 458.25 378.91C455.593 379.333 453.122 379.46 450.511 378.701C448.772 377.675 447.423 376.193 445.75 375.107C444.065 374.013 442.329 374.839 440.5 375.235C439.284 374.642 439.161 374.398 438.412 373.25C437.772 366.699 443.046 361.888 445.628 356.404C446.527 354.493 447.028 351.447 445.956 349.5C445.907 349.41 445.079 348.253 444.856 348.16C443.905 347.762 441.782 348.148 440.764 348.303C437.258 348.836 433.241 350.162 429.75 349.439C428.351 348.041 428.186 348.079 428.003 346C431.269 339.664 437.647 338.143 443.727 335.75Z"/>
	<path fill="#121212" d="M475.098 292.203C478.513 291.547 487.25 291.441 490.304 293.205L490.75 293.486C491.767 294.114 492.638 294.546 493.046 295.75C492.714 296.25 492.571 296.667 492.018 296.935C486.959 299.387 480.587 299.897 475.197 301.904C465.109 305.661 455.449 312.421 448.38 320.524C445.638 323.668 443.424 327.17 440.468 330.138L429.707 327.08C427.519 325.075 426.25 323.142 425.511 320.25C427.099 317.333 434.299 316.031 437.25 313.844C437.655 312.534 437.478 312.515 436.887 311.25C432.45 307.867 424.009 312.435 419.075 313.21C417.126 313.516 415.186 313.317 413.25 313.031L412.639 311.75C412.829 310.519 412.792 309.5 413.657 308.522C415.678 306.235 420.024 304.716 422.877 303.598C439.494 297.082 457.394 293.953 475.098 292.203Z"/>
	<path fill="#121212" d="M519.872 295.214C525.496 294.525 531.87 295.024 537.5 295.463C557.095 296.99 577.448 301.729 595.328 310.01C592.447 313.489 588.929 317.149 586.967 321.231C583.209 329.05 591.88 334.483 589.302 342.13C588.597 344.223 586.631 346.518 585.052 348.06C576.781 356.138 565.584 356.483 555.038 359.521C549.367 361.154 543.278 363.562 538.139 366.436C534.845 368.278 533.238 370.374 532.313 374.024L532.168 374.623C531.274 378.675 530.608 381.722 527.753 384.965C525.497 387.529 522.771 389.407 519.25 389.457C515.551 389.509 512.411 387.765 509.988 385.07C505.082 379.613 498.5 367.939 501.249 360.533C502.365 357.525 504.771 354.808 504.845 351.5C504.922 348.062 503.378 342.698 500 341.09C498.215 340.24 494.976 340.366 494.103 338.115C492.658 334.388 495.932 329.27 492.255 326.105C491.751 325.672 491.195 325.283 490.602 324.981C486.845 323.072 481.648 322.584 477.536 321.783C475.141 321.316 472.723 321.162 471.018 319.25C470.992 317.379 471.03 316.719 472.25 315.262C475.504 311.374 480.453 308.275 484.823 305.809C488.495 303.736 492.169 301.529 496.091 299.959C503.691 296.915 511.762 295.784 519.872 295.214Z"/>
	<path fill="#08C" d="M330.487 691.348C324.351 685.289 319.088 678.117 314.06 671.123C297.595 648.217 285.228 623.39 277.039 596.372C257.994 533.538 260.975 463.974 292.341 405.434C293.451 403.364 296.899 395.792 298.69 395.25C299.679 396.697 299.681 398.965 299.375 400.658C298.521 405.37 295.71 410.476 294.029 414.99L286.624 436.894C282.709 448.872 276.843 463.383 280.2 476.099L280.45 477C282.501 484.725 287.367 490.969 289.776 498.393C291.499 503.703 289.968 510.539 291.014 516.188C291.373 518.124 291.877 520.055 292.603 521.888C294.623 526.984 297.833 529.425 302.75 531.447L303.589 531C303.92 526.598 298.95 521.818 297.424 517.653C293.441 506.783 297.384 491.566 302.105 481.42C301.226 489.84 298.989 499.268 301.216 507.672L301.455 508.5C303.117 514.535 306.65 517.964 310.727 522.432C311.906 523.724 313.968 525.608 314.434 527.281C315.802 532.19 315.435 537.7 316.216 542.75C318.126 555.103 332.032 553.037 341.414 554.908C346.034 555.829 351.185 557.978 354.997 560.725C360.152 573.24 370.689 602.848 383.75 608.473C386.691 609.739 390.386 609.277 393.504 608.954C390.744 619.552 391.239 628.826 396.822 638.415C400.067 643.99 405.56 649.599 410.967 653.108C423.003 660.921 430.436 661.777 429.889 678.638C428.733 687.267 426.67 694.692 427.835 703.579C429.137 713.513 433.345 723.141 436.964 732.415C439.214 738.18 441.195 744.323 444.552 749.547C446.213 752.13 448.323 754.35 450.797 756.172C454.631 758.996 461.686 762.398 466.662 761.425C467.769 761.209 467.877 761.222 468.505 760.25C465.755 757.435 460.61 755.294 458.937 751.789C457.452 748.678 462.89 744.751 463.925 741.639C464.918 738.658 463.635 736.006 462.297 733.404L461.882 732.603C464.12 730.9 468.95 727.877 469.932 725.153C471.316 721.317 467.345 715.753 470.306 712.048C473.833 707.636 481.25 708.251 485.766 704.822C491.504 700.466 490.586 691.9 495.719 686.932C500.666 682.143 508.866 682.084 513.565 677.021C518.904 671.268 519.074 660.823 522.233 653.743C524.894 647.777 529.901 644.185 533.551 639C535.813 635.787 537.159 631.927 536.317 627.974C534.032 617.25 517.896 618.709 510.133 614.156L509.605 613.841C507.057 612.684 504.334 611.258 501.537 610.871C497.119 610.261 491.647 612.227 487.489 613.608C487.524 607.098 487.668 600.346 484.704 594.349C479.856 584.538 463.209 578.034 453.379 574.767L456.517 551.25C463.016 517.886 481.868 485.355 510.412 466.177C539.634 446.543 576.251 437.404 611.263 441.423C620.597 442.495 629.332 445.004 638.475 446.817L639.392 448.25C638.166 449.614 635.703 450.174 633.983 450.849C625.854 454.038 614.662 457.53 614.951 468.131C615.025 470.841 616.318 473.354 618.307 475.179C621.416 478.033 626.666 478.767 630.75 478.372C636.19 477.845 641.15 475.929 645.386 472.511C648.034 476.481 657.12 477.642 661.553 478.632C652.807 479.821 644.544 481.553 636.031 483.902C626.175 486.622 616.283 489.523 609.851 497.993C608.19 500.179 606.773 502.809 605.881 505.412C605.304 507.095 604.575 511.717 603.602 512.874C603.233 513.312 601.665 513.964 601.125 514.273C599.036 515.468 596.893 516.657 595.074 518.25C586.032 526.166 584.488 543.322 586.151 554.433C587.425 562.943 590.288 569.86 595.428 576.752C602.15 583.367 609.934 588.574 619.75 588.341C623.797 588.244 627.058 586.399 630.525 584.565C637.609 580.817 643.444 578.724 651.547 580.819C655.166 581.755 658.956 583.331 661.75 585.877C664.875 588.725 666.864 593.567 666.873 597.786C666.884 602.908 665.691 607.875 666.459 613L666.561 613.74C668.215 624.495 677.127 631.552 669.31 642.817C665.426 648.414 662.622 650.475 663.578 657.75C664.03 661.196 666.128 664.289 666.506 667.692C667.393 675.657 663.883 686.157 671.547 691.84C673.426 693.233 675.159 693.547 677.446 693.138C688.119 691.227 699.708 682.612 705.616 673.6L716.031 655.866C720.863 648.25 726.884 641.134 730.968 633.076C732.978 629.113 734.645 624.937 735.624 620.595C736.031 618.786 736.389 614.27 737.379 612.901C737.87 606.036 742.339 599.695 745.722 593.949C750.627 585.617 752.313 575.216 752.504 565.658C752.586 561.548 752.516 556.93 750.37 553.259C746.784 547.127 741.555 542.436 738.684 535.712C734.147 525.083 732.073 513.828 729.177 502.715C728.999 496.475 726.463 489.512 724.822 483.492C723.365 479.614 722.271 475.008 719.806 471.658C720.409 469.725 723.491 467.234 724.984 465.812C730.886 460.37 736.765 457.327 744.279 454.626C745.104 455.139 745.196 456.105 745.505 457C747.598 463.074 749.33 469.47 750.787 475.734L755.212 501.793L754.924 501.909L754.364 501.419C750.507 498.1 746.374 497.111 741.335 497.516C739.399 497.671 736.935 498.295 735.564 499.75C733.851 501.567 734.644 506.946 734.971 509.329C736.406 519.763 740.324 534.693 749.003 541.482C751.891 543.741 754.2 543.894 757.693 544.15C755.383 570.369 751.195 598.758 740.808 623.127C737.228 633.854 731.92 643.893 726.295 653.666C702.784 694.514 667.604 727.081 625.506 748.109C569.078 776.295 499.358 781.65 439.494 761.565C397.169 747.365 360.734 724.184 330.487 691.348Z"/>
	<path fill="#121212" d="M726.937 466.827C730.631 465.178 735.911 463.089 739.935 464.75C743.164 466.083 744.816 471.427 745.767 474.487C746.635 477.277 747.244 481.111 745.866 483.79C744.994 485.486 742.344 487.143 740.5 487.455C737.137 488.025 734.162 487.158 731.5 485.064L727.991 481.599C725.981 477.481 724.325 474.797 723.451 470.138C724.226 468.841 725.775 467.8 726.937 466.827Z"/>
</svg>
