<?xml version="1.0"?>
<svg width="1024" height="1024" xmlns="http://www.w3.org/2000/svg" xmlns:svg="http://www.w3.org/2000/svg">
 <defs>
  <linearGradient id="gradient_0" x1="1.03" x2="0.07" y1="0.99" y2="0.02">
   <stop offset="0" stop-color="#0759C4"/>
   <stop offset="1" stop-color="#07B5FA"/>
  </linearGradient>
 </defs>
 <g class="layer">
  <title>Layer 1</title>
  <g id="svg_33">
   <path d="m1,1l1024,0l0,1024l-1024,0l0,-1024z" fill="#121212" id="svg_1"/>
   <path d="m693.8,456.81l0.29,-0.53c1.33,-2.59 1.6,-6.76 2.95,-8.91c0.49,-0.75 2.39,-2.07 3.14,-2.71c5.25,-4.4 12.32,-8.66 18.81,-10.91c4.91,-1.7 10.5,-1.99 15.22,0.77c2.69,1.56 5.11,4.78 7.47,6.87l10.27,8.47c0.64,0.56 2.47,1.84 2.85,2.49c0.36,0.6 0.25,1.37 0.37,2.06c-3.55,5.13 -11.93,7.79 -17.89,8.8l-21.32,2c-6.07,-1.36 -18.53,-2.95 -22.15,-8.39z" fill="#FEFEFE" id="svg_2"/>
   <path d="m295.73,577.74c3.56,1.75 7.07,3.44 10.87,4.66c2.92,0.92 6.72,1.22 9.29,2.87c5.39,3.45 8.62,9.34 14.45,12.64c3.11,1.75 5.09,2.88 6.15,6.53c0.99,3.36 1.17,6.85 2.25,10.21c5.62,-0.64 13.49,-2.52 18.2,1.43c2.02,1.69 2.73,3.63 2.84,6.21c0.3,7.09 -7.37,15.86 -11.28,21.56c-4.26,0.45 -9.34,1.08 -13.37,-0.66c-17.9,-7.7 -32.35,-48.29 -39.41,-65.44z" fill="#FEFEFE" id="svg_3"/>
   <path d="m651.85,67.2c26.28,8.05 54.31,16.75 77.49,31.83l-12.97,21.63c-0.56,1.14 -1.19,1.84 -2.1,2.74c-22.91,-11.01 -46.35,-21.49 -70.86,-28.35l8.43,-27.85z" fill="#12C6FC" id="svg_4"/>
   <path d="m808.66,498.21l-3.13,-2.17c-5.63,-3.65 -13.3,-6.95 -20.08,-4.96c-4.74,1.38 -8.9,3.69 -13.8,4.69c-10.5,2.12 -21.66,-7.59 -30.06,-13.08c-3.15,-2.06 -6.15,-4.63 -7.22,-8.42c4.78,-8.84 19.99,-10.84 28.13,-15.44c1.34,-0.75 2.21,-1.58 2.65,-3.07c2.56,-8.81 -5.68,-17.59 -11.49,-23.08c-2.23,-2.12 -5.32,-4.5 -6.83,-7.2c-0.82,-1.51 -0.99,-1.58 -0.44,-3.25c2.1,-0.66 5.28,-0.85 7.24,0.21c2.58,1.37 4.92,3.85 7.06,5.84c7.16,6.63 14.83,15.64 17.38,25.25c1.15,4.33 0.32,9.68 1.84,13.71c0.52,1.37 0.86,1.43 2.12,1.89c5.81,-3 9.75,-8.51 13.79,-13.49c3.37,4.59 4.88,10.9 6.87,16.22c2.25,8.25 5.73,17.81 5.98,26.35z" fill="#FEFEFE" id="svg_5"/>
   <path d="m576.77,21.16c9.55,-0.81 20.25,2.93 27.94,8.5c8.68,6.26 15,16.6 16.45,27.21c1.56,11.34 -1.18,23.98 -8.44,33.01c-8.05,9.97 -19.15,14.71 -31.6,16.08c-10.83,0.04 -20.9,-1.85 -29.65,-8.66c-8.57,-6.68 -15.34,-17.33 -16.5,-28.31c-1.17,-11.04 1.4,-22.85 8.55,-31.56c8.62,-10.5 20.06,-15.01 33.26,-16.27z" fill="#FEFEFE" id="svg_6"/>
   <path d="m51.94,343.13c11.62,-1.07 22.97,0.22 33.05,6.51c10.58,6.61 18.48,16.22 21.22,28.53c2.93,13.06 0.8,26.33 -6.5,37.59c-7.43,11.46 -18.27,18.29 -31.56,20.99c-10.71,1.7 -20.69,0.75 -30.39,-4.39c-10.86,-5.76 -20.18,-15.83 -23.63,-27.77l-0.33,-1.21l-0.64,-2.26c-2.76,-11.21 -0.63,-26.4 5.73,-36.11c7.96,-12.13 19.15,-18.77 33.05,-21.88z" fill="#08C" id="svg_7"/>
   <path d="m957.6,599.61c11.68,-0.69 22.07,1.95 31.83,8.51c9.8,6.59 17.2,17.68 19.4,29.28c2.48,13.06 0.67,25.57 -7,36.64c-8.68,12.5 -20.55,18.6 -35.23,21.25c-4.26,0.14 -9.02,0.45 -13.19,-0.42c-5.4,-1.12 -10.1,-2.67 -14.98,-5.32c-10.61,-5.76 -19.64,-16.48 -23.03,-28.1l-0.29,-1.04l-1,-4.5c-1.8,-13.6 0.19,-26.72 8.91,-37.7c8.88,-11.17 20.62,-16.92 34.59,-18.6z" fill="#064DB4" id="svg_8"/>
   <path d="m922.85,275.46c14.5,19.53 26.54,42.85 36.26,65.02c32.63,74.48 45.06,154.92 37.81,235.79l-18.04,-1.73l-12.01,-1.23c6.57,-80.01 -4.58,-159.04 -38.66,-232.19c-7.7,-16.55 -17.33,-31.82 -25.89,-47.87c7.53,-5.41 14.17,-11.06 20.53,-17.79z" fill="url(#gradient_0)" id="svg_9"/>
   <path d="m31.53,455.47c9.99,2.85 19.08,4.52 29.4,5.44c-1.59,20.96 -4.37,41.56 -4.78,62.65c-0.23,11.84 0.7,23.58 1.67,35.37c3.5,42.88 13.91,84.46 30.39,124.17c4.29,10.35 8.69,20.7 13.94,30.6l10.56,19.12c1.81,3.24 4.39,6.84 5.39,10.36l-10.27,6.36l-15.5,9.61c-10.4,-18.18 -20.49,-36.59 -28.86,-55.81c-27.01,-62.02 -40.12,-130.63 -36.98,-198.23c0.78,-16.64 2.91,-33.13 5.04,-49.64z" fill="#08C" id="svg_10"/>
   <path d="m487.67,44.56l10.97,-0.47l0.04,30.93c-42.06,0.38 -85.59,8.27 -125.65,20.84c-79.29,24.87 -151.9,71.69 -206.49,134.38c-25.03,28.76 -45.92,60.21 -63.51,93.98l-11.39,-5.59l-14.78,-6.47c2.91,-6.55 6.54,-12.78 9.88,-19.11c16.9,-32.01 38.73,-61.96 62.92,-88.88c86.02,-95.72 209.84,-152.83 338,-159.6z" fill="#12C6FC" id="svg_11"/>
   <path d="m921.6,709.23l28.72,12.04l-5.47,11.06c-51.1,95.5 -133.76,174.34 -232.15,219.78c-23.51,10.86 -48.27,19.52 -73.06,26.92c-21.8,6.5 -44.22,10.35 -66.75,13.34c-39,5.2 -78.26,6.1 -117.4,1.6c-63.11,-7.24 -124.17,-27.65 -179.92,-57.79l-22.62,-13.19c5.33,-8.27 10.66,-16.26 14.76,-25.24l45.17,23.78c42.54,20.07 88.07,34.11 134.66,40.8c71.27,10.24 147.32,1.73 215.03,-22.62c86.98,-31.28 161.56,-87.2 216.56,-161.35c16.24,-21.89 30.86,-44.44 42.47,-69.14z" fill="#064DB4" id="svg_12"/>
   <path d="m153.68,757.95c23.84,-2.4 46.9,3.77 66.22,17.88c20.22,14.74 32.24,37.19 35.94,61.58c3.67,24.1 -3.24,49.95 -17.75,69.49c-15.41,20.73 -36.83,32.78 -62.19,36.41l-1.99,0.34c-21.65,3.25 -46.66,-4.32 -64.11,-17.2c-19.92,-14.71 -34.02,-35.87 -37.62,-60.58c-3.61,-24.76 2.97,-52.19 18.14,-72.17c15.57,-20.55 38.01,-32.41 63.36,-35.74z" fill="#08C" id="svg_13"/>
   <path d="m819.72,67.75l0.04,-0.01c29.06,-2.48 58.03,5.18 81.3,23.08c23.91,18.37 40.29,46.76 43.99,76.7c3.8,30.76 -4.06,63.44 -23.32,87.95c-19.52,24.85 -48.57,39.49 -79.58,43.35l-0.38,0.1c-28.35,4.13 -60.45,-7.44 -82.61,-24.62c-24.91,-19.3 -38.89,-50.39 -42.66,-81.03c-3.58,-29.01 5.66,-58.85 23.51,-81.66c20.1,-25.72 47.65,-40.03 79.7,-43.85z" fill="#08C" id="svg_14"/>
   <path d="m828.41,89.01l15.37,0.66c24.24,3.17 46.54,16.96 61.51,36.01c14.87,18.94 21.58,43.69 18.55,67.65c-2.37,18.84 -8.9,37.29 -21.82,51.58c-17.86,19.75 -41.06,31.04 -67.68,32.45c-24.33,0.81 -44.81,-6.73 -63.48,-22.4c-17.86,-14.98 -31.1,-40.62 -32.91,-63.95c-2.04,-26.42 6.03,-50.93 23.41,-70.91c17.42,-20 41.01,-29.39 67.06,-31.09z" fill="#121212" id="svg_15"/>
   <path d="m826.44,104.77c5.03,-0.32 10.06,-0.01 15.07,0.63c20.16,2.63 38.15,12.9 50.45,29.13c13.38,17.68 18.71,37.67 15.93,59.75c-1.86,14.76 -7.95,28.54 -17.61,39.88c-14.2,16.68 -33.98,25.88 -55.64,27.62c-18.66,1.75 -38.77,-6.06 -53.13,-17.59c-15.57,-12.49 -26.1,-32.94 -28.31,-52.65c-2.32,-20.66 3.71,-41.41 16.86,-57.46c15.11,-18.45 32.97,-26.95 56.4,-29.31z" fill="#08C" id="svg_16"/>
   <path d="m370.13,589.72c-5.94,2.47 -17.04,12.13 -23.03,10.88c-2.55,-0.53 -3.99,-2.55 -5.29,-4.66c-1.71,-2.74 -3.3,-6.21 -3.82,-9.43c-0.59,-3.67 0.59,-11.27 -1.27,-14.16c-4.17,-6.51 -15.59,-2.26 -22.07,-3.98c-2.43,-0.64 -5.07,-2.03 -6.15,-4.41c-0.84,-1.84 -1.45,-3.82 -0.49,-5.73c1.8,-3.58 6.77,-6.33 10.35,-7.7c5.98,-2.29 12.69,-4.83 18.86,-6.42c1.06,-0.27 3.58,-1.15 4.59,-1.06c3.52,0.37 10.31,6.15 13.26,8.14c3.73,2.52 7.77,4.84 11.88,6.63c6.15,2.7 13.11,4.92 19.89,4.4c3.51,-0.26 7,-2.22 10.23,-3.54l18.15,-7.02l-24.43,-2.54c-5.84,-0.59 -11.56,-0.85 -17.18,-2.73c-8.68,-2.91 -14.6,-9.44 -24.24,-10.73c-7.32,-0.99 -11.35,2.65 -18.05,3.91c-2.55,0.48 -4.83,0 -7.36,-0.27c-10.39,-1.1 -14.45,-0.95 -20.25,8.1c-1.8,2.78 -3.73,6.85 -6.53,8.72c-2.03,1.34 -4.41,1.77 -6.77,1.19c-4.93,-1.18 -8.5,-6.15 -10.94,-10.29c-5.35,-9.06 -8.17,-21.22 -5.39,-31.54l0.32,-1.12c1.22,-4.37 3.18,-9.64 7.39,-11.95c3.67,-2.02 7.29,-1.11 10.97,0.18c2.03,0.7 4.74,-0.58 6.74,-1.27c4.66,-1.62 9.27,-3.77 14.28,-3.15c14.38,1.74 18.92,10.24 27.29,20.19c1.96,2.32 3.39,3.85 6.4,4.13c2.71,-3.29 1.32,-8.72 1.11,-12.67c-0.16,-3.14 -0.66,-7.11 0.05,-10.17c1.64,-6.98 7.98,-15.92 13.82,-19.89c5.28,-3.59 10.49,-5.21 14.82,-10.42c5.76,-6.91 8.31,-17.11 14.61,-23.45c3.26,-3.28 9.29,-4.88 13.39,-7.14c3.99,-2.21 7.59,-4.98 11.68,-7.06c0.75,-0.38 2.56,-1.54 3.33,-1.64c0.19,-0.03 2.11,0.95 2.34,1.04c3.06,1.34 8.39,4.11 11.73,3.62c1.84,-0.26 3.63,-0.88 4.8,-2.39c1.33,-1.71 1.21,-4.17 0.84,-6.22c-1.48,-8.09 -14.82,-9.44 -20.56,-13.86c-1.78,-1.38 -2.51,-2.28 -2.84,-4.44c5.59,-5.09 18.33,-10.19 25.89,-10.21c6.33,-0.01 13.67,2.45 15.92,9.05c1.66,4.91 1.4,8.9 5.29,12.82c3.61,1.38 7.33,0.8 11.05,0.03c3.36,-0.69 7.44,-1.51 9.38,-4.48c-1.44,-6.53 -5.99,-11.75 -7.79,-18.05c-0.62,-2.19 -0.05,-4.4 0.04,-6.62c0.15,-4.19 -0.44,-9.86 -3.48,-13.06c-1.34,-1.4 -4.36,-2.28 -6.18,-3.06c-3.84,-1.63 -7.48,-4.03 -9.71,-7.66c-3.33,-5.43 -2.56,-13.83 -6.53,-18.7c-1.4,-1.74 -3.29,-2.02 -5.35,-2.45c-5.44,1.19 -5.31,6.9 -9.31,8.98c-0.88,0.47 -1.93,0.05 -2.84,-0.19c-6.54,-1.78 -8.02,-10.21 -11.09,-15.26c-1.81,-2.97 -5.48,-5.24 -8.87,-5.92c-5.29,-1.07 -11.6,0.1 -16.09,3.03c-3.21,2.1 -6.98,6.61 -7.69,10.57c-0.15,0.84 0.66,3.3 0.84,4.24c0.78,4.18 1.18,7.85 0.23,12.08c-0.52,2.33 -1.48,4.83 -2.81,6.81c-2.69,4.02 -6.54,7.29 -9.57,11.06c-1.88,2.33 -3.77,6.88 -6.32,8.33c-1.26,0.71 -2.25,0.04 -3.59,-0.33c-5.24,-5.11 -2.33,-9.86 -5.14,-15.6c-2.37,-2.44 -5.29,-2.95 -8.47,-3.77l-18.66,-3.93c-4.25,-0.8 -7.84,-1.91 -10.27,-5.73c-2.81,-4.43 -3.51,-13.01 -2.37,-18.09c0.96,-4.26 4.22,-7.4 7.9,-9.54c4.74,-2.76 28.83,-11.39 33.12,-9.02c4.19,2.34 7.31,8.31 12.15,9.34c1.8,0.38 1.96,0 3.4,-0.97c0.49,-1.32 0.95,-2.65 0.86,-4.07c-0.86,-15.56 -18.59,-10.69 -27.7,-17.2c-4.17,-2.99 -4.35,-9.65 -8.12,-13.19c-3.25,-3.04 -10.06,-4.5 -14.34,-2.99c-2.14,0.77 -4.06,2.11 -6.26,2.74c-1.86,0.52 -6.13,0.44 -7.55,1.26c-1.33,0.78 -2.37,2.71 -3.71,3.44c-2.04,1.1 -6.25,1.15 -8.62,1.62c-5.69,1.14 -10.72,3.36 -16.64,3.47c-2.95,0.05 -4.07,-0.82 -6.14,-2.88c-2.43,-2.43 -3.56,-3.11 -6.99,-3.63c-1.08,-0.16 -1.17,-0.73 -1.81,-1.55l0.44,-3.77c0.41,-1.71 1,-2.44 2.41,-3.39c3.41,4.66 10.46,8.68 15.15,12.32l2.07,-0.45c8.65,-2.17 13.26,-5.46 17.81,-13.06c1.23,1.06 2.58,2.3 4.04,3.02c2.59,1.25 5.96,1.11 8.57,-0.07c1.82,-0.84 2.91,-1.33 3.63,-3.17c-1.69,-3.02 -5.8,-5.72 -8.31,-8.22c0.41,-1.75 1.22,-2.74 2.28,-4.18c4.3,-1.85 5.06,-2.4 6.85,-6.76l-0.69,-1.11c-8.38,-2.67 -18.15,-1.58 -26.21,1.6c-2.22,0.86 -6.17,2.99 -8.47,2.88c-2.44,-0.14 -4.24,-2.23 -5.44,-4.09c0.15,-3.85 3.47,-6.48 6.2,-8.98c4,-3.69 8.66,-6.72 13.09,-9.87c8.42,-5.96 16.83,-11.58 25.81,-16.67c57.63,-32.64 121.84,-48.36 187.97,-45.95c74.78,2.73 144.91,29.9 203,76.93c9.12,7.39 18.57,14.37 26.61,22.99c-5.13,0.81 -11.51,1.43 -16.11,3.92c-6.14,3.33 -9.84,11.16 -12.3,17.33c-1.48,3.71 -3.15,7.59 -5.94,10.54c-4.56,4.83 -13.05,5.89 -16.67,11.1c-0.9,1.3 -1.11,2.76 -0.85,4.29c1.81,10.29 16.61,11.08 24.88,11.34c1.64,0.05 5.4,-0.32 6.79,0.16c0.64,0.23 3.02,3.4 3.63,4.07c1.89,2 3.98,3.69 6.31,5.15c4.36,2.74 8.79,4.22 13.94,2.78c2.76,-0.78 5.35,-2.95 6.57,-5.52c3.07,-6.54 -2.89,-11.75 -4.95,-17.59c-2.37,-6.73 -0.22,-14.75 2.97,-20.96c2.56,3 5.04,6.02 6.85,9.54c2.77,5.39 3.77,14.17 9.54,16.93c2.04,-0.86 3.26,-1.22 5.48,-1.25c3.15,2.93 4.63,8.79 6.11,12.82c-2.88,0.77 -6.66,1.38 -9.2,2.97c-5.55,3.48 -8.61,12.68 -12.84,17.85c-3.5,1.18 -9.17,0.73 -12.9,0.44c-13,-0.96 -14.26,-8.35 -22.04,-16.15c-1.82,-1.82 -3.32,-1.47 -5.68,-1.41c-2.39,1.51 -4.02,3.28 -5.88,5.37c-1.51,4.11 -0.05,10.83 0.37,15.2c-5.55,6.26 -18.03,8.53 -25.43,12.01c-8.88,4.15 -11.95,9.76 -15.05,18.6c1.37,4.39 5.03,9.4 7.24,13.57c-12.54,-2.49 -24.51,-5.92 -37.31,-7.4c-47.99,-5.51 -98.19,7.02 -138.25,33.94c-39.12,26.29 -64.96,70.88 -73.87,116.62l-4.3,32.24l-8.76,-2.56c-8.31,-1.27 -17.63,-2.22 -25.69,0.89c-1.44,0.56 -4.92,2.77 -6.2,2.84c-0.56,0.03 -0.82,-0.75 -1.23,-1.12c-1.29,-1.17 -2.6,-2.32 -4.03,-3.3c-4.39,-3.03 -9.35,-3.63 -14.54,-4z" fill="#FEFEFE" id="svg_17"/>
   <path d="m377.67,242.29c1.75,-0.16 3.02,-0.22 4.76,0.14l0,1.14c-2.87,1.71 -5.83,2.73 -8.95,3.82c-1.73,0.32 -2.45,0.18 -4.07,-0.49l-0.18,-1.11l8.44,-3.5z" fill="#121212" id="svg_18"/>
   <path d="m360.58,269.06c2.62,-0.25 3.52,-0.64 5.7,0.96c0.97,2.32 1.12,2.54 0.6,5.14c-1.64,1.88 -2.59,2.26 -5.02,2.76c-1.66,0.07 -3.65,0.23 -5.14,-0.64c-1.7,-0.99 -1.89,-2.1 -2.45,-3.82c1.38,-2.14 4.13,-3.21 6.31,-4.39z" fill="#121212" id="svg_19"/>
   <path d="m460.18,297.44c2.32,-0.08 2.59,-0.19 4.5,1.06c0.15,0.63 0.27,0.95 0.29,1.56c0.15,4.46 -3.59,9.73 -6.46,12.86c-1.37,0.7 -1.4,0.71 -2.91,0.44c-1.04,-1.48 -1.64,-3.1 -1.55,-4.95c0.16,-3.08 3.71,-9.05 6.13,-10.97z" fill="#121212" id="svg_20"/>
   <path d="m366.83,252.79c2.23,-0.37 3.78,-0.42 6,0.03c1.56,1.45 1.84,1.43 2.08,3.5c-1.47,1.92 -6.13,5.55 -8.53,6.02c-3.22,0.62 -7.39,-0.7 -10.69,0.26c-2.15,0.63 -5.96,4.33 -7.84,5.85l-3.81,0.55c-2.18,0 -3.22,-0.95 -4.8,-2.23c-0.49,-1.75 -0.67,-2.67 0.41,-4.28c5.29,-7.85 18.73,-8.66 27.17,-9.69z" fill="#121212" id="svg_21"/>
   <path d="m650.67,363.24c1.29,-0.25 2.26,-0.45 3.58,-0.16c2.69,0.56 11.73,6.33 12.9,8.81c1.06,2.22 1.15,6.57 0.08,8.83c-1.45,3.11 -5.69,4.92 -8.69,6.1l-5.15,1.04c-3.13,0.53 -7.79,1.29 -10.49,-0.63c-0.23,-0.63 -0.41,-0.97 -0.4,-1.71c0.03,-2.99 2.29,-6.66 3.37,-9.42c1.51,-3.82 2.18,-9.88 4.8,-12.86z" fill="#121212" id="svg_22"/>
   <path d="m370.13,589.72c1.91,-1.43 3.98,-3.15 6.18,-4.07c6.26,-2.62 15.24,-2.91 22.02,-3.41c2.88,-0.21 6.29,-0.8 9.13,-0.29c0.88,0.16 1.6,0.55 2.39,0.93l1.12,0.56c4.39,2.26 9.35,6.11 10.86,10.98c-8.31,-1.27 -17.63,-2.22 -25.69,0.89c-1.44,0.56 -4.92,2.77 -6.2,2.84c-0.56,0.03 -0.82,-0.75 -1.23,-1.12c-1.29,-1.17 -2.6,-2.32 -4.03,-3.3c-4.39,-3.03 -9.35,-3.63 -14.54,-4z" fill="#08C" id="svg_23"/>
   <path d="m349.31,277.56l2.28,-0.1c3.06,2.97 3.28,6.74 5.48,10.29c2.89,4.65 7.39,8.16 10.79,12.42c1.75,2.21 5.48,7.43 5.2,10.28c-3.71,1.84 -8.01,0.95 -11.86,0c-2.1,-0.92 -5.31,-2.14 -7.09,-3.52c-3.02,-2.36 -4.39,-9.87 -7.21,-13.2c-3.21,-3.77 -7.13,-3.87 -11.76,-4.35l-0.42,-1.21l1.32,-2.76c2.76,-5.18 8.07,-6.33 13.28,-7.87z" fill="#121212" id="svg_24"/>
   <path d="m378.88,293.78c-1.92,-2.84 -6,-3.21 -7.66,-6.62c-2.07,-4.22 4.73,-18.19 6.7,-22.59l5.51,-1.34c6.53,-1.43 12.28,-1.15 18.88,-0.45c2.19,0.23 4.99,0.21 6.85,1.41l0.15,2.07c-2.36,3.11 -6.31,3.4 -9.57,5.48c-4.47,2.88 -5,7.11 -8.32,10.6c-2.07,2.18 -8.36,6.2 -8.95,8.83l2.54,0.82c1.47,1.51 2.02,1.58 2,3.77c-0.03,3.76 -0.73,7.36 -2.37,10.75c-1.56,1.18 -2.28,1.69 -4.29,1.91c-1.88,-1.22 -2.12,-1.41 -3.06,-3.43l1.59,-11.2z" fill="#121212" id="svg_25"/>
   <path d="m609.19,306.83l10.75,0.1c4.55,0.37 15.48,0.67 18.07,4.5c1.01,1.48 1.29,3.24 0.88,4.98c-1.17,5.04 -8.79,9.83 -12.97,12.43l-1.45,0.7c-6.05,2.49 -13.64,2.34 -19.6,-0.41c-3.25,-1.51 -7,-4.47 -8.01,-8.09c-0.77,-2.77 -0.14,-6.85 1.41,-9.27c2.17,-3.36 7.36,-4.22 10.93,-4.93z" fill="#121212" id="svg_26"/>
   <path d="m667.34,344.05l1.32,-0.34c2.06,-0.36 4,0.14 5.44,1.71c1.82,2.02 2.99,4.95 4.78,7.14c5.13,6.26 12.75,11.01 12.39,19.99c-0.36,8.97 -5.83,15.07 -12.06,20.67l0.16,1.27l-0.52,2.52c-0.64,1.85 -1.01,2.73 -2.73,3.61l-0.93,-0.7c-6.05,-4.78 -1.54,-17.34 -1.25,-23.87c0.11,-2.49 -0.38,-5.13 -0.74,-7.61c-3.62,-1.84 -7.96,-4.56 -9.92,-8.29c-1.73,-3.29 -1.93,-8.21 -0.75,-11.68c0.9,-2.66 2.43,-3.36 4.81,-4.43z" fill="#121212" id="svg_27"/>
   <path d="m417.36,269.34c0.81,-0.18 1.6,-0.63 2.43,-0.53c0.92,0.1 4.63,2.92 5.69,3.56c4.7,2.92 9.87,5.11 14.49,8.12c4.67,3.03 8.06,7.43 9.24,12.91l0.19,0.96c0.99,4.84 -0.3,9.76 0.08,14.67c0.44,5.77 2.85,12.32 2.43,17.99c-0.25,3.43 -1.44,6.83 -4.07,8.98l-1.54,-0.16c-0.21,-1.6 -0.29,-3.69 -0.99,-5.14c-0.42,-0.9 -1.78,-2.39 -2.7,-2.66c-1.75,-0.53 -3.58,0.19 -5.35,0.48c-3.65,0.58 -7.03,0.75 -10.61,-0.29c-2.39,-1.4 -4.24,-3.44 -6.53,-4.92c-2.32,-1.51 -4.69,-0.37 -7.2,0.18c-1.67,-0.82 -1.84,-1.15 -2.87,-2.73c-0.88,-8.98 6.36,-15.57 9.9,-23.1c1.23,-2.62 1.92,-6.79 0.45,-9.46c-0.07,-0.12 -1.21,-1.71 -1.51,-1.84c-1.32,-0.55 -4.22,-0.01 -5.62,0.19c-4.8,0.74 -10.31,2.55 -15.09,1.56c-1.92,-1.92 -2.14,-1.86 -2.4,-4.72c4.48,-8.69 13.23,-10.77 21.56,-14.05z" fill="#121212" id="svg_28"/>
   <path d="m460.36,209.64c4.67,-0.89 16.66,-1.04 20.84,1.37l0.62,0.4c1.4,0.85 2.59,1.45 3.15,3.1c-0.47,0.69 -0.66,1.26 -1.41,1.63c-6.94,3.36 -15.67,4.06 -23.06,6.8c-13.83,5.15 -27.07,14.42 -36.77,25.52c-3.76,4.32 -6.8,9.12 -10.84,13.19l-14.75,-4.19c-3,-2.76 -4.74,-5.4 -5.76,-9.36c2.18,-4 12.05,-5.78 16.09,-8.79c0.55,-1.8 0.32,-1.82 -0.49,-3.55c-6.09,-4.63 -17.66,1.63 -24.43,2.69c-2.66,0.42 -5.32,0.15 -7.98,-0.25l-0.84,-1.75c0.26,-1.69 0.21,-3.08 1.4,-4.43c2.77,-3.13 8.72,-5.21 12.64,-6.74c22.77,-8.94 47.31,-13.23 71.58,-15.63z" fill="#121212" id="svg_29"/>
   <path d="m521.73,213.76c7.72,-0.95 16.45,-0.26 24.17,0.34c26.87,2.1 54.76,8.6 79.27,19.95c-3.95,4.77 -8.77,9.79 -11.46,15.38c-5.15,10.72 6.73,18.16 3.19,28.65c-0.96,2.87 -3.66,6.02 -5.83,8.13c-11.34,11.08 -26.69,11.54 -41.14,15.71c-7.77,2.23 -16.12,5.54 -23.17,9.49c-4.51,2.52 -6.72,5.39 -7.99,10.39l-0.19,0.82c-1.23,5.57 -2.14,9.73 -6.06,14.17c-3.08,3.52 -6.83,6.1 -11.65,6.17c-5.07,0.07 -9.38,-2.33 -12.69,-6.02c-6.73,-7.48 -15.75,-23.48 -11.98,-33.64c1.54,-4.13 4.83,-7.84 4.93,-12.38c0.1,-4.72 -2.02,-12.06 -6.65,-14.27c-2.45,-1.17 -6.88,-0.99 -8.09,-4.07c-1.97,-5.11 2.51,-12.13 -2.54,-16.46c-0.69,-0.6 -1.45,-1.14 -2.26,-1.55c-5.14,-2.62 -12.27,-3.29 -17.9,-4.39c-3.29,-0.63 -6.61,-0.85 -8.94,-3.47c-0.04,-2.56 0.01,-3.47 1.69,-5.47c4.46,-5.33 11.24,-9.58 17.23,-12.95c5.04,-2.84 10.08,-5.87 15.45,-8.02c10.42,-4.17 21.48,-5.73 32.6,-6.51z" fill="#121212" id="svg_30"/>
   <path d="m262.13,756.8c-8.42,-8.31 -15.63,-18.14 -22.52,-27.73c-22.56,-31.39 -39.52,-65.43 -50.75,-102.47c-26.11,-86.13 -22.02,-181.5 20.97,-261.74c1.52,-2.84 6.25,-13.21 8.7,-13.95c1.36,1.99 1.36,5.09 0.95,7.42c-1.18,6.46 -5.03,13.46 -7.33,19.64l-10.16,30.02c-5.36,16.42 -13.41,36.31 -8.8,53.75l0.34,1.23c2.81,10.6 9.49,19.15 12.79,29.32c2.36,7.28 0.26,16.66 1.69,24.4c0.49,2.65 1.19,5.29 2.18,7.81c2.77,6.98 7.17,10.32 13.91,13.11l1.15,-0.62c0.45,-6.03 -6.36,-12.58 -8.46,-18.3c-5.46,-14.9 -0.05,-35.75 6.43,-49.66c-1.21,11.54 -4.28,24.47 -1.22,35.98l0.32,1.14c2.29,8.27 7.13,12.97 12.72,19.1c1.62,1.77 4.44,4.36 5.07,6.65c1.88,6.73 1.38,14.28 2.45,21.21c2.62,16.93 21.67,14.11 34.53,16.67c6.33,1.26 13.41,4.21 18.63,7.98c7.06,17.15 21.51,57.74 39.41,65.44c4.03,1.74 9.1,1.11 13.37,0.66c-3.78,14.53 -3.1,27.25 4.55,40.38c4.46,7.65 11.98,15.34 19.4,20.15c16.49,10.71 26.69,11.88 25.94,35c-1.59,11.83 -4.41,22 -2.82,34.19c1.8,13.61 7.57,26.81 12.52,39.52c3.08,7.91 5.8,16.33 10.4,23.5c2.28,3.54 5.17,6.58 8.57,9.07c5.25,3.88 14.93,8.54 21.74,7.2c1.52,-0.29 1.67,-0.27 2.52,-1.6c-3.77,-3.87 -10.82,-6.8 -13.11,-11.6c-2.04,-4.26 5.41,-9.65 6.84,-13.91c1.36,-4.09 -0.41,-7.72 -2.23,-11.3l-0.58,-1.1c3.07,-2.33 9.69,-6.47 11.04,-10.21c1.91,-5.25 -3.54,-12.89 0.52,-17.96c4.83,-6.05 15,-5.21 21.19,-9.91c7.85,-5.96 6.61,-17.71 13.64,-24.52c6.79,-6.57 18.03,-6.65 24.47,-13.58c7.31,-7.88 7.54,-22.21 11.87,-31.91c3.65,-8.17 10.51,-13.11 15.52,-20.21c3.1,-4.4 4.95,-9.69 3.8,-15.12c-3.14,-14.7 -25.25,-12.69 -35.9,-18.93l-0.71,-0.44c-3.5,-1.59 -7.24,-3.54 -11.06,-4.07c-6.06,-0.84 -13.56,1.86 -19.26,3.76c0.04,-8.92 0.25,-18.18 -3.82,-26.4c-6.63,-13.45 -29.46,-22.37 -42.93,-26.84l4.3,-32.24c8.91,-45.73 34.75,-90.32 73.87,-116.62c40.06,-26.92 90.25,-39.45 138.25,-33.94c12.8,1.48 24.77,4.91 37.31,7.4l1.25,1.96c-1.67,1.86 -5.06,2.63 -7.42,3.56c-11.14,4.37 -26.48,9.16 -26.09,23.69c0.1,3.71 1.88,7.16 4.61,9.66c4.26,3.91 11.46,4.92 17.05,4.37c7.46,-0.71 14.26,-3.34 20.07,-8.03c3.62,5.44 16.08,7.03 22.15,8.39c-11.98,1.63 -23.32,4 -34.98,7.22c-13.52,3.73 -27.07,7.7 -35.89,19.31c-2.28,3 -4.22,6.61 -5.44,10.17c-0.8,2.32 -1.78,8.65 -3.13,10.23c-0.51,0.6 -2.66,1.49 -3.39,1.92c-2.87,1.64 -5.81,3.28 -8.31,5.46c-12.39,10.86 -14.5,34.37 -12.23,49.6c1.74,11.67 5.68,21.15 12.72,30.6c9.21,9.07 19.88,16.2 33.34,15.89c5.55,-0.14 10.02,-2.66 14.76,-5.17c9.72,-5.14 17.71,-8.02 28.83,-5.14c4.96,1.27 10.16,3.44 13.98,6.94c4.29,3.91 7,10.54 7.02,16.33c0.01,7.02 -1.62,13.83 -0.56,20.85l0.14,1.01c2.28,14.75 14.49,24.41 3.77,39.86c-5.32,7.66 -9.17,10.5 -7.85,20.47c0.62,4.73 3.5,8.97 4.02,13.63c1.21,10.93 -3.61,25.32 6.91,33.11c2.58,1.91 4.95,2.34 8.09,1.78c14.63,-2.62 30.51,-14.43 38.62,-26.79l14.27,-24.3c6.62,-10.45 14.87,-20.21 20.48,-31.24c2.76,-5.44 5.03,-11.16 6.37,-17.11c0.56,-2.48 1.06,-8.68 2.41,-10.56c0.67,-9.4 6.8,-18.09 11.43,-25.98c6.73,-11.42 9.03,-25.68 9.29,-38.78c0.12,-5.63 0.03,-11.97 -2.92,-17c-4.92,-8.4 -12.09,-14.83 -16.02,-24.06c-6.21,-14.57 -9.06,-29.99 -13.02,-45.24c-0.25,-8.54 -3.73,-18.09 -5.98,-26.35c-1.99,-5.32 -3.5,-11.62 -6.87,-16.22c0.82,-2.65 5.04,-6.07 7.09,-8.02c8.1,-7.46 16.15,-11.62 26.46,-15.33c1.12,0.7 1.26,2.03 1.67,3.25c2.88,8.32 5.25,17.09 7.25,25.68l6.06,35.72l-0.4,0.16l-0.77,-0.67c-5.28,-4.55 -10.95,-5.91 -17.85,-5.35c-2.66,0.21 -6.05,1.07 -7.92,3.06c-2.34,2.49 -1.26,9.87 -0.81,13.13c1.97,14.3 7.33,34.76 19.23,44.07c3.96,3.1 7.13,3.3 11.91,3.66c-3.17,35.94 -8.9,74.86 -23.14,108.27c-4.91,14.7 -12.19,28.46 -19.9,41.86c-32.23,55.98 -80.45,100.63 -138.15,129.46c-77.36,38.63 -172.93,45.98 -255,18.45c-58.01,-19.47 -107.97,-51.25 -149.42,-96.26z" fill="#08C" id="svg_31"/>
   <path d="m805.59,449.02c5.06,-2.26 12.3,-5.13 17.81,-2.85c4.43,1.82 6.7,9.16 8.01,13.35c1.18,3.82 2.02,9.07 0.14,12.75c-1.21,2.33 -4.84,4.59 -7.36,5.02c-4.61,0.78 -8.69,-0.4 -12.34,-3.28l-4.81,-4.74c-2.76,-5.65 -5.02,-9.32 -6.22,-15.71c1.07,-1.78 3.18,-3.21 4.78,-4.54z" fill="#121212" id="svg_32"/>
  </g>
 </g>
</svg>