<?xml version="1.0" encoding="utf-8" ?>
<svg xmlns="http://www.w3.org/2000/svg" xmlns:xlink="http://www.w3.org/1999/xlink" width="1024" height="1024">
	<path fill="#121212" d="M-0 -0L1024 0L1024 1024L-0 1024L0 -0Z"/>
	<path fill="#05416F" d="M774.576 487.938L775.998 526.043C773.411 522.066 770.717 519.466 766.246 517.73L774.439 491.318L774.576 487.938Z"/>
	<path fill="#022E9D" d="M347.327 820.78C351.835 817.291 356.406 813.959 360.581 810.057L367.982 802.448L368.622 802.886C370.817 804.313 374.272 804.949 376.784 805.701L393.41 810.432L385.94 836.963C379.628 835.327 373.467 832.933 367.348 830.688C360.641 828.226 352.586 825.8 347.327 820.78Z"/>
	<path fill="#08C" d="M168.698 466.792L192.268 471.853C191.16 483.645 189.253 495.401 188.67 507.25C186.305 555.364 195.132 601.683 213.953 645.962L204.961 654.384L196.62 663.008C191.162 653.122 187.261 641.919 183.45 631.319C170.687 595.816 164.115 558.495 164.139 520.75C164.15 502.607 166.009 484.709 168.698 466.792Z"/>
	<defs>
		<linearGradient id="gradient_0" gradientUnits="userSpaceOnUse" x1="472.64087" y1="804.91937" x2="423.94376" y2="876.97571">
			<stop offset="0" stop-color="#03D5FC"/>
			<stop offset="1" stop-color="#055EFF"/>
		</linearGradient>
	</defs>
	<path fill="url(#gradient_0)" d="M437.635 799.752C447.18 796.576 459.278 798.048 468.246 802.463C478 807.265 485.797 816.073 489.194 826.414C491.344 832.959 491.905 839.748 490.98 846.566C490.346 852.044 488.526 857.373 485.798 862.159C479.684 872.882 470.207 880.119 458.315 883.276C447.174 886.233 435.804 884.285 425.981 878.486C416.598 872.946 409.818 864.046 407.121 853.5C404.129 841.8 405.841 829.345 412.082 819C417.653 809.764 427.171 802.37 437.635 799.752Z"/>
	<defs>
		<linearGradient id="gradient_1" gradientUnits="userSpaceOnUse" x1="182.42912" y1="444.4852" x2="200.17093" y2="359.53571">
			<stop offset="0" stop-color="#0786F9"/>
			<stop offset="1" stop-color="#10FFFF"/>
		</linearGradient>
	</defs>
	<path fill="url(#gradient_1)" d="M148.053 406.607C147.717 393.969 150.451 382.476 159.363 373.06C167.694 364.258 180.117 359.097 192.25 359.059C202.987 359.026 214.5 363.303 222.063 371.049C230.786 379.982 235.326 390.948 235.073 403.418C234.905 411.719 232.108 419.833 227.217 426.533C227.023 427.174 227.172 426.795 226.555 427.707C220.422 436.778 210.459 443.242 199.633 445.115C187.764 447.168 175.52 444.178 165.789 437.146C155.401 429.64 149.988 419.022 148.053 406.607Z"/>
	<defs>
		<linearGradient id="gradient_2" gradientUnits="userSpaceOnUse" x1="835.94452" y1="577.89789" x2="830.18835" y2="665.578">
			<stop offset="0" stop-color="#0FFDF8"/>
			<stop offset="1" stop-color="#0986FF"/>
		</linearGradient>
	</defs>
	<path fill="url(#gradient_2)" d="M790.574 628.841C789.334 615.291 791.611 604.088 800.456 593.483C808.27 584.113 818.363 579.063 830.479 578.105C841.699 577.217 852.882 581.262 861.382 588.566C870.079 596.041 875.687 607.09 876.409 618.562C876.688 622.984 876.747 630.018 874.755 634.102C873.011 642.881 866.471 651.519 859.506 656.894C850.857 663.569 839.3 667.27 828.39 665.693L827.5 665.556C820.931 664.592 814.324 662.283 808.837 658.462C798.611 651.342 792.793 640.966 790.574 628.841Z"/>
	<defs>
		<linearGradient id="gradient_3" gradientUnits="userSpaceOnUse" x1="581.39014" y1="142.1528" x2="566.48334" y2="228.99713">
			<stop offset="0" stop-color="#0CF7F9"/>
			<stop offset="1" stop-color="#02CBFF"/>
		</linearGradient>
	</defs>
	<path fill="url(#gradient_3)" d="M570.16 141.161C579.152 139.503 591.279 143.191 598.75 148.171C608.28 154.524 615.286 165 617.471 176.227C619.904 188.724 616.636 201.129 609.533 211.462C602.558 221.612 591.582 228.278 579.563 230.512C569.45 231.674 558.118 229.253 549.728 223.306C539.758 216.24 533.23 206.042 531.205 193.961C529.294 182.555 531.207 169.434 538.16 159.953C546.238 148.937 556.848 143.288 570.16 141.161Z"/>
	<defs>
		<linearGradient id="gradient_4" gradientUnits="userSpaceOnUse" x1="727.64838" y1="307.38513" x2="755.63489" y2="221.71738">
			<stop offset="0" stop-color="#0012DA"/>
			<stop offset="1" stop-color="#02FFFF"/>
		</linearGradient>
	</defs>
	<path fill="url(#gradient_4)" d="M712.625 231.283C720.658 223.802 733.125 219.659 744.006 220.033C756.117 220.45 766.749 225.369 775.038 234.252C777.866 237.283 780.154 240.787 781.921 244.527C785.974 252.872 788.422 263.641 786.053 272.816C784.563 282.697 778.543 293.003 770.911 299.387C760.83 307.82 748.608 310.889 735.629 309.429C724.627 308.192 713.517 301.714 706.714 293.033C698.527 282.585 695.76 270.837 697.337 257.806C699.212 247.813 704.546 237.656 712.625 231.283Z"/>
	<defs>
		<linearGradient id="gradient_5" gradientUnits="userSpaceOnUse" x1="672.74805" y1="829.04083" x2="646.71991" y2="711.04718">
			<stop offset="0" stop-color="#063BA5"/>
			<stop offset="1" stop-color="#0774E2"/>
		</linearGradient>
	</defs>
	<path fill="url(#gradient_5)" d="M687.706 782.228C696.69 775.948 705.887 770.029 714.464 763.176C727.308 752.914 739.12 741.228 750.25 729.152C761.907 716.505 773.175 702.87 782.244 688.236C785.72 682.627 789.825 677.418 797.429 678.755C800.437 679.284 803.251 680.767 804.89 683.41C806.699 686.329 807.378 690.379 806.488 693.696C805.166 698.621 800.209 704.027 797.185 708.188C775.727 737.709 749.476 764.146 720.337 786.145C715.277 789.965 709.569 794.721 704.012 797.686L703.476 797.897C700.987 800.12 697.593 801.897 694.738 803.662L673.296 815.787C659.053 823.171 644.606 830.109 629.556 835.703C592.604 849.44 553.672 856.032 514.366 857.01C513.681 855.439 514.029 852.651 514.021 850.899L513.954 834.976C524.562 835.073 535.211 834.126 545.75 832.999C572.577 830.129 599.293 823.943 624.506 814.284C646.574 805.83 667.627 794.624 687.706 782.228Z"/>
	<defs>
		<linearGradient id="gradient_6" gradientUnits="userSpaceOnUse" x1="368.97086" y1="342.36411" x2="359.71384" y2="178.7386">
			<stop offset="0" stop-color="#0D7FC2"/>
			<stop offset="1" stop-color="#00FAFF"/>
		</linearGradient>
	</defs>
	<path fill="url(#gradient_6)" d="M297.426 244.655C305.799 237.312 316.062 230.842 325.5 224.965C372.469 195.718 425.061 177.402 480.25 172.441C492.164 171.369 504.378 170.269 516.34 171.036C510.73 179.749 508.994 185.863 508.901 196.208C492.183 196.796 475.071 197.876 458.555 200.623C421.721 206.749 384.576 220.3 351.981 238.498C339.478 245.479 327.63 253.465 315.918 261.677C312.893 264.65 309.066 267.297 305.765 269.999L287.759 285.739C272.458 300.357 258.833 316.023 246.365 333.116L234.5 350.537L212.533 338.392C213.02 336.679 214.189 335.123 215.137 333.622C217.655 329.634 220.51 325.877 223.308 322.084C240.367 298.965 258.542 277.528 280.255 258.575C285.735 253.793 291.39 248.703 297.426 244.655Z"/>
	<defs>
		<linearGradient id="gradient_7" gradientUnits="userSpaceOnUse" x1="363.04636" y1="879.06042" x2="470.16974" y2="618.80786">
			<stop offset="0" stop-color="#006FFD"/>
			<stop offset="1" stop-color="#0EFDFD"/>
		</linearGradient>
	</defs>
	<path fill="url(#gradient_7)" d="M183.404 723.43C185.52 695.687 199.859 671.137 220.703 653.245C230.021 645.247 239.565 639.816 250.861 635.104C252.54 634.403 254.957 633.026 256.687 632.724L257.182 632.772L261.921 647.43C238.536 655.13 218.639 670.417 207.331 692.681C201.318 704.52 197.693 717.356 197.302 730.642C197.374 736.317 197.369 741.897 198.23 747.525C201.171 766.767 210.355 785.147 224.25 798.826C241.051 815.365 264.918 825.385 288.546 824.844C315.704 824.223 336.719 812.84 355.854 794.136L357.837 791.747C368.226 778.943 375.346 762.083 377.164 745.674C378.28 735.601 377.602 725.117 376.543 715.074C375.536 711.729 375.112 708.093 374.195 704.684C372.533 698.511 369.923 692.823 367.283 687.027L367.936 687.063L371.354 693.633C373.52 693.718 375.381 693.858 377.502 694.255C378.659 694.471 379.836 694.406 381.014 694.636C382.824 694.99 385.134 694.374 386.945 694.089C386.358 691.94 385.444 690.066 384.75 687.984C384.424 687.006 383.973 686.165 383.5 685.25C386.588 687.295 390.576 703.327 391.445 707.656L392.567 715.174C393.206 720.567 393.565 725.676 393.408 731.115C448.465 762.364 519.362 773.648 580.638 756.68C601.438 750.92 620.752 742.55 639.599 732.038C644.832 730.049 651.119 726.352 655.838 723.268L666.266 716.796L667 716.298L679.722 707.512C680.448 707.095 681.08 706.748 681.734 706.21L682.25 705.759L683.697 707.176C663.434 724.433 640.366 739.753 615.974 750.525C577.671 767.44 534.354 774.283 492.676 770.904C468.658 768.956 444.65 763.588 422.344 754.388L403.387 745.826C400.405 744.391 396.166 741.615 392.965 741.19C390.426 759.785 385.088 778.148 374.34 793.805C372.551 796.411 370.526 799.654 368.172 801.771L368.044 801.854L367.982 802.448L360.581 810.057C356.406 813.959 351.835 817.291 347.327 820.78C325.989 834.878 300.616 842.238 274.972 839.055C246.781 835.556 220.865 819.987 203.615 797.535C187.96 777.158 180.057 749.014 183.404 723.43Z"/>
	<defs>
		<linearGradient id="gradient_8" gradientUnits="userSpaceOnUse" x1="702.2843" y1="513.93378" x2="799.60718" y2="192.7751">
			<stop offset="0" stop-color="#0889F6"/>
			<stop offset="1" stop-color="#09FFFF"/>
		</linearGradient>
	</defs>
	<path fill="url(#gradient_8)" d="M784.438 341.17C783.386 340.852 780.171 342.874 778.943 343.441C768.348 348.335 756.608 350.702 745.041 351.718C743.565 350.821 742.257 348.576 741.16 347.206L733.437 337.829C742.38 338.106 751.678 337.543 760.384 335.308C779.194 330.478 796.573 317.661 806.513 300.934C815.816 285.279 819.252 264.726 814.403 247C809.188 227.938 796.368 211.436 779.094 201.75C761.791 192.048 740.76 190.053 721.771 195.552C701.74 201.352 685.752 214.722 675.8 233.026C665.377 252.197 665.437 271.112 671.549 291.509L655.154 281.659L654.884 279.25C652.685 260.311 656.414 242.095 664.871 225.165C662.517 223.916 659.704 223.139 657.222 222.129C649.08 218.816 640.393 215.891 632.557 211.974C633.944 207.621 635.581 202.311 635.385 197.725C635.208 193.564 633.781 189.504 632.527 185.573C649.179 189.754 665.258 197.471 680.597 205.091L682.653 203.211C700.105 187.409 723.382 178.58 746.989 179.858C771.021 181.159 793.154 191.477 809.19 209.582C823.878 226.166 830.919 248.791 829.45 270.757C828.491 285.105 823.685 298.589 816.304 310.839C812.727 316.776 809.087 322.021 803.826 326.596L809.779 336.147C823.577 356.953 835.354 379.967 843.295 403.658C846.046 410.867 848.013 418.355 850.111 425.772C861.914 467.492 865.625 513.941 858.509 556.867C850.418 555.701 842.319 554.435 834.118 554.496C837.145 525.463 838.367 497.256 833.863 468.243L828.368 439.781L824.681 425.97C824.45 425.109 823.587 422.832 823.715 422.056C817.16 402.09 809.3 383.055 798.861 364.781L784.438 341.17Z"/>
	<defs>
		<linearGradient id="gradient_9" gradientUnits="userSpaceOnUse" x1="322.57697" y1="674.54504" x2="259.70459" y2="781.9126">
			<stop offset="0" stop-color="#FFA137"/>
			<stop offset="1" stop-color="#4C2081"/>
		</linearGradient>
	</defs>
	<path fill="url(#gradient_9)" d="M235.708 700.928C240.967 687.927 254.373 676.546 267.032 671.172C282.432 664.635 300.079 664.953 315.541 671.214C330.459 677.255 342.027 688.945 348.286 703.72C354.805 719.108 354.966 737.554 348.558 753.004C345.942 759.311 342.177 764.716 337.831 769.94C332.746 775.072 324.408 782.719 317.106 784.287C310.446 788.559 299.779 790.217 292 790.328C276.76 790.546 260.195 785.119 249.098 774.439C238.852 764.577 230.004 749.123 229.654 734.611C228.296 724.355 230.113 709.78 235.708 700.928Z"/>
	<path fill="#F5FAFC" d="M249.556 510.537C248.786 467.612 261.481 424.026 282.547 386.83C315.642 328.397 373.788 284.3 438.374 266.419C488.426 252.561 541.114 253.356 591.031 267.457C611.433 273.22 630.022 280.424 648.5 290.944C675.276 306.189 698.415 324.97 718.309 348.561C720.642 351.328 725.788 356.26 726.713 359.63C725.742 364.021 724.79 371.018 720.689 373.647C718.745 374.893 716.579 375.182 714.388 374.543C707.202 372.445 703.996 362.325 699.323 357.148C694.255 351.534 687.365 347.912 680.172 345.835C675.205 344.401 670.005 343.767 665 345.368L664.126 345.642C660.588 346.803 658.23 348.639 656.664 352.048C655.005 355.66 654.592 359.784 652.927 363.414C650.627 368.429 640.716 376.645 642.74 382.263C643.424 384.162 645.046 385.952 646.11 387.678C648.072 390.859 648.474 394.03 652 395.951C656.057 395.9 658.341 395.161 661.172 392.267L661.5 391.926C663.406 391.213 665.104 391.585 666.903 392.451C672.092 394.946 672.52 403.779 679.219 401.984C680.244 401.709 681.854 400.59 682.312 399.6C685.379 392.973 669.256 375.907 678.037 371.16C679.416 370.415 680.799 370.405 682.25 370.935C687.709 372.933 693.254 382.875 695.545 388.047C697.932 393.433 699.4 400.689 697.139 406.326C694.794 412.169 684.805 415.402 679.289 417.551C677.358 418.303 675.509 418.831 673.5 418.052C672.523 417.673 671.479 416.861 670.716 416.156C668.306 413.291 665.681 409.075 662.25 407.559C660.467 407.475 658.704 407.187 657.25 408.417C654.823 410.47 654.22 414.272 651.938 416.669C645.303 423.639 634.017 426.885 625.275 430.218C618.735 431.73 612.55 433.389 605.775 433.576C583.95 434.178 562.718 426.957 546.868 411.698C537.719 402.891 530.731 391.802 530.442 378.811L529.955 380.25C527.796 381.765 525.164 382.744 522.5 382.561C513.318 381.933 506.828 367.899 501.526 361.5C498.85 358.271 495.637 355.479 492.976 352.25C491.626 350.612 491.465 349.842 491.603 347.75C494.733 344.902 503.193 345.906 507.538 345.278C509.944 344.929 511.466 344.465 512.89 342.5C513.204 335.074 507.775 331.07 503.618 325.733C501.795 323.392 500.422 320.882 499.121 318.225C499.493 316.154 500.512 314.049 501.261 312.08C494.117 309.964 486.565 309.45 479.641 306.508C477.804 305.728 477.216 305.089 476.492 303.25C476.854 301.417 478.307 300.117 479.516 298.765C477.645 297.787 476.597 296.69 475.224 295.103C477.974 293.116 480.873 291.324 484.02 290.03C489.252 287.878 497.33 286.803 501.195 282.638C502.718 280.997 503.466 279.742 503.368 277.546C502.544 276.43 501.908 275.654 500.625 275.064C497.311 273.538 492.928 274.014 489.378 274.277C471.846 275.575 457.01 281.718 440.606 287.286C438.8 287.502 437.134 287.535 435.5 288.377L433.625 289.002L433.087 289.252C432.46 289.531 431.921 289.64 431.25 289.755L430.745 290.25L430.488 289.463C429.48 286.421 428.183 284.193 427.653 280.933C427.464 279.771 427.299 279.015 426.5 278.122C421.195 279.579 415.852 281.991 410.762 284.113C393.895 291.144 377.981 300.102 362.845 310.323C359.501 312.581 355.374 314.909 352.509 317.76L352.396 317.991C353.051 323.654 345.978 335.808 342.378 340.552C339.116 345.727 335.106 350.339 331.135 354.975C330.158 356.256 329.099 357.42 328.57 358.955L328.358 359.547C326.235 360.652 324.433 361.944 322.546 363.392C316.448 371.084 306.625 373.879 299.372 380.004C295.618 383.175 293.005 388.179 289.108 390.876C278.8 406.958 271.728 425.451 266.173 443.643C262.833 453.535 260.451 463.846 258.824 474.156C258.236 477.881 257.409 481.834 257.68 485.607L252.301 503.457C251.532 505.768 250.846 508.472 249.556 510.537Z"/>
	<path fill="#022E9D" d="M587.73 354.132C592.159 353.619 597.703 354.234 601.55 356.556C604.109 358.101 606.27 360.509 606.916 363.5C607.369 365.599 607.208 367.767 605.856 369.5C603.461 372.569 599.727 373.315 596.091 373.786C591.467 374.081 586.354 373.086 582.321 370.814C580.127 369.578 577.057 367.137 576.496 364.536C576.096 362.682 576.298 360.621 577.383 359.044C579.689 355.693 583.982 354.723 587.73 354.132Z"/>
	<path fill="#05416F" d="M619.357 382.75C621.207 382.435 622.974 382.313 624.75 382.961C626.297 383.526 627.265 384.451 628.142 385.836C629.667 388.242 629.867 391.374 631.177 393.943C633.206 397.92 636.698 401.55 638.25 405.697C638.94 407.542 638.146 410.794 637.166 412.412C634.843 416.243 627.621 417.919 623.408 418.977C617.793 420.387 612.534 420.501 607.501 417.473L606.684 416.616C604.232 413.803 603.15 410.508 603.58 406.768C603.903 403.961 605.127 401.327 607.509 399.696C608.997 398.678 610.571 398.37 612.328 398.7C617.484 399.669 618.567 402.957 621.492 406.5C622.591 407.831 623.059 407.887 624.75 407.973L625.458 406.75C625.494 401.274 624.435 398.175 620.803 394.012C619.785 392.845 618.363 391.534 617.65 390.161C616.981 388.873 616.831 385.77 617.252 384.436C617.63 383.238 618.296 383.217 619.357 382.75Z"/>
	<path fill="#08C" d="M352.396 317.991C353.051 323.654 345.978 335.808 342.378 340.552C339.116 345.727 335.106 350.339 331.135 354.975C330.158 356.256 329.099 357.42 328.57 358.955L328.358 359.547C326.235 360.652 324.433 361.944 322.546 363.392C316.448 371.084 306.625 373.879 299.372 380.004C295.618 383.175 293.005 388.179 289.108 390.876C291.52 385.694 295.051 380.825 298.266 376.103C313.117 354.283 331.696 334.365 352.396 317.991Z"/>
	<path fill="#12B5FE" d="M329.061 353.399C332.393 349.405 337.447 342.178 342.378 340.552C339.116 345.727 335.106 350.339 331.135 354.975C330.158 356.256 329.099 357.42 328.57 358.955L328.358 359.547C326.235 360.652 324.433 361.944 322.546 363.392L322.516 362.473C322.557 359.527 327.068 355.51 329.061 353.399Z"/>
	<path fill="#022E9D" d="M479.516 298.765C483.686 296.279 487.981 296.387 492.212 294.477C494.99 293.223 496.935 290.529 499.786 289.3C504.274 287.365 509.216 285.91 513.854 284.361C529.449 279.153 544.2 275.791 560.51 279.876C569.706 282.179 578.817 285.817 586.74 291.058C589.479 292.87 592.769 295.198 594.578 297.998C595.611 299.596 595.807 301.003 595.75 302.864C595.205 304.113 594.811 304.896 593.5 305.465C588.837 307.488 579.952 303.89 577.334 309.407C576.112 311.98 577.635 315.589 578.707 317.985C581.381 323.957 588.317 332.095 586.17 338.994C585.366 341.575 583.39 343.715 581 344.915C576.48 347.185 569.925 347.764 564.979 348.806C552.923 351.346 536.447 357.122 531.928 369.938C530.865 372.95 530.398 375.634 530.442 378.811L529.955 380.25C527.796 381.765 525.164 382.744 522.5 382.561C513.318 381.933 506.828 367.899 501.526 361.5C498.85 358.271 495.637 355.479 492.976 352.25C491.626 350.612 491.465 349.842 491.603 347.75C494.733 344.902 503.193 345.906 507.538 345.278C509.944 344.929 511.466 344.465 512.89 342.5C513.204 335.074 507.775 331.07 503.618 325.733C501.795 323.392 500.422 320.882 499.121 318.225C499.493 316.154 500.512 314.049 501.261 312.08C494.117 309.964 486.565 309.45 479.641 306.508C477.804 305.728 477.216 305.089 476.492 303.25C476.854 301.417 478.307 300.117 479.516 298.765Z"/>
	<defs>
		<linearGradient id="gradient_10" gradientUnits="userSpaceOnUse" x1="570.97192" y1="489.60706" x2="765.67969" y2="446.03729">
			<stop offset="0" stop-color="#002B4B"/>
			<stop offset="1" stop-color="#099ECC"/>
		</linearGradient>
	</defs>
	<path fill="url(#gradient_10)" d="M670.716 416.156C671.479 416.861 672.523 417.673 673.5 418.052C675.509 418.831 677.358 418.303 679.289 417.551C684.805 415.402 694.794 412.169 697.139 406.326C699.4 400.689 697.932 393.433 695.545 388.047C693.254 382.875 687.709 372.933 682.25 370.935C680.799 370.405 679.416 370.415 678.037 371.16C669.256 375.907 685.379 392.973 682.312 399.6C681.854 400.59 680.244 401.709 679.219 401.984C672.52 403.779 672.092 394.946 666.903 392.451C665.104 391.585 663.406 391.213 661.5 391.926L661.172 392.267C658.341 395.161 656.057 395.9 652 395.951C648.474 394.03 648.072 390.859 646.11 387.678C645.046 385.952 643.424 384.162 642.74 382.263C640.716 376.645 650.627 368.429 652.927 363.414C654.592 359.784 655.005 355.66 656.664 352.048C658.23 348.639 660.588 346.803 664.126 345.642L665 345.368C670.005 343.767 675.205 344.401 680.172 345.835C687.365 347.912 694.255 351.534 699.323 357.148C703.996 362.325 707.202 372.445 714.388 374.543C716.579 375.182 718.745 374.893 720.689 373.647C724.79 371.018 725.742 364.021 726.713 359.63C728.434 364.24 731.937 368.762 734.533 373.008C740.863 383.364 747.971 394.559 752.281 405.893C758.993 418.497 763.242 432.585 767.027 446.294C770.711 459.635 774.357 474.046 774.576 487.938L774.439 491.318L766.246 517.73C770.717 519.466 773.411 522.066 775.998 526.043C776.291 540.575 774.215 555.887 770.106 569.824C768.714 570.882 768.313 571.686 767.594 573.25C758.638 592.737 744.805 610.147 728.68 624.211C725.762 626.756 722.398 630.2 718.714 631.51L717.646 631.869L715.247 635.077C710.516 636.004 704.745 640.168 700.298 642.277C686.962 648.603 672.054 653.513 657.46 655.741C654.637 656.172 651.168 656.907 648.346 656.666C654.555 636.45 662.934 613.965 654.214 593.069C653.163 591.133 651.606 589.683 649.709 588.589C642.8 584.604 636.644 586.946 629.59 588.781C628.36 586.84 623.764 586.183 621.5 585.487C615.109 583.521 609.099 581.057 603.098 578.113C600.922 577.046 598.461 574.97 596.222 574.266C595.282 573.97 594.458 573.65 593.545 573.265C591.72 571.813 590.015 567.631 588.918 565.521C587.999 563.169 587.049 560.836 586.521 558.358L586.345 557.5C585.592 554.037 585.422 550.814 585.452 547.262C585.532 537.859 589.168 528.983 597.015 523.444C601.088 520.57 605.119 518.289 608.379 514.411C612.934 508.991 614.074 502.069 618.249 496.638C622.477 491.136 628.605 488.58 633.365 483.843C634.807 482.408 637.4 479.811 637.411 477.75C632.912 475.959 626.827 477.454 621.953 476.359C618.977 475.691 616.033 473.543 614.463 470.932C612.315 467.362 611.491 462.331 612.675 458.307C614.872 450.844 622.937 450.752 628.544 447.472C630.017 446.61 630.637 445.576 630.94 443.915C632.114 437.467 628.653 434.921 625.275 430.218C634.017 426.885 645.303 423.639 651.938 416.669C654.22 414.272 654.823 410.47 657.25 408.417C658.704 407.187 660.467 407.475 662.25 407.559C665.681 409.075 668.306 413.291 670.716 416.156Z"/>
	<path fill="#F5FAFC" d="M682.046 500.75C678.972 498.646 675.213 496.28 673.971 492.566C673.447 490.999 673.405 489.333 672.976 487.75C671.116 480.879 659.046 480.836 653.1 480.289C651.12 480.107 648.388 480.113 646.709 478.924C645.902 478.352 645.614 478.161 645.489 477.153C644.995 473.163 647.399 467.779 649.926 464.783C652.912 461.242 656.477 458.772 661.257 458.565C667.716 458.286 671.518 462.552 675.75 466.585C678.197 468.916 680.149 469.459 683.5 469.427C684.796 468.672 685.274 467.535 685.98 466.269L686.315 465.658C687.636 464.345 687.862 463.789 689.75 463.522C691.694 464.688 692.893 465.993 693.922 468.03C696.049 472.243 699.043 487.521 705 487.047C706.473 486.929 706.916 486.289 707.755 485.25C706.909 480.526 701.012 476.191 703.432 471.25C704.819 470.144 705.412 469.67 707.25 469.989C713.311 471.041 716.398 480.726 721.367 483.688L721.901 484.045C723.194 484.884 724.532 485.756 726.112 485.867C730.716 486.192 735.737 483.279 737.168 489.817C737.783 492.622 736.685 496.081 735.052 498.378C733.674 500.317 730.507 502.35 729.521 504.25C728.852 505.539 728.984 508.065 729.068 509.501C725.052 508.424 720.834 507.389 717.275 505.155C713.541 502.811 710.668 498.827 706.483 497.235C700.295 494.88 697.17 501.291 692.123 503.18C688.876 504.395 684.953 502.077 682.046 500.75Z"/>
	<defs>
		<linearGradient id="gradient_11" gradientUnits="userSpaceOnUse" x1="721.43433" y1="480.40771" x2="772.70996" y2="472.33337">
			<stop offset="0" stop-color="#025475"/>
			<stop offset="1" stop-color="#0A91B8"/>
		</linearGradient>
	</defs>
	<path fill="url(#gradient_11)" d="M761.257 453.503L762.25 451L762.255 450.25C762.904 449.689 763.559 448.857 763.75 448L763.755 447.25C764.3 446.778 764.528 446.496 764.836 445.82L765.125 445.125C765.614 443.968 765.469 444.159 765.25 443C764.878 441.028 764.28 438.624 763.562 436.758L762 432.25C761.748 431.398 761.634 430.657 761.158 429.891L760.878 429.5L761 428.75C760.396 427.583 759.857 426.523 759.5 425.25C758.741 422.538 757.574 419.853 756.5 417.25C756.11 416.305 755.423 415.261 755.115 414.337C754.521 412.552 753.723 411.003 753 409.25L752.105 407.174L751.772 406.504L752.281 405.893C758.993 418.497 763.242 432.585 767.027 446.294C770.711 459.635 774.357 474.046 774.576 487.938L774.439 491.318L766.246 517.73C764.05 517.742 761.905 517.658 759.761 518.195L760.04 518.969C758.249 521.348 757.258 524.053 755.829 526.638C751.606 534.275 747.114 542.331 740.808 548.457L739.694 542.005C738.749 542.264 737.972 542.3 737 542.345L736.019 540.828C736.148 537.41 736.09 534.011 734.963 530.75C732.322 523.108 727.637 520.026 729.775 510.984C729.75 510.41 729.362 509.983 729.068 509.501C728.984 508.065 728.852 505.539 729.521 504.25C730.507 502.35 733.674 500.317 735.052 498.378C736.685 496.081 737.783 492.622 737.168 489.817C735.737 483.279 730.716 486.192 726.112 485.867C724.532 485.756 723.194 484.884 721.901 484.045L721.367 483.688C722.698 482.28 724.863 482.056 726.709 481.498C729.324 480.707 731.787 479.802 734.258 478.625C738.922 476.403 743.215 473.365 747.435 470.417C750.469 468.297 753.326 465.365 755.627 462.472L755.997 461.998C758.115 459.404 760.112 456.665 761.257 453.503Z"/>
	<path fill="#F5FAFC" d="M729.775 510.984C731.47 512.594 733.697 514.403 734.849 516.441C736.03 518.532 736.526 521.276 737.044 523.625C738.384 529.703 738.974 535.836 739.694 542.005C738.749 542.264 737.972 542.3 737 542.345L736.019 540.828C736.148 537.41 736.09 534.011 734.963 530.75C732.322 523.108 727.637 520.026 729.775 510.984Z"/>
	<path fill="#05416F" d="M760.04 518.969L759.761 518.195C761.905 517.658 764.05 517.742 766.246 517.73C770.717 519.466 773.411 522.066 775.998 526.043C776.291 540.575 774.215 555.887 770.106 569.824C768.714 570.882 768.313 571.686 767.594 573.25C758.638 592.737 744.805 610.147 728.68 624.211C725.762 626.756 722.398 630.2 718.714 631.51L717.646 631.869L715.247 635.077C710.516 636.004 704.745 640.168 700.298 642.277C686.962 648.603 672.054 653.513 657.46 655.741C654.637 656.172 651.168 656.907 648.346 656.666C654.555 636.45 662.934 613.965 654.214 593.069C668.189 590.879 683.762 590.316 696.283 582.911C705.902 579.042 714.345 573.314 722.306 566.735C727.659 562.312 732.439 558.184 735.868 552.054L736.019 540.828L737 542.345C737.972 542.3 738.749 542.264 739.694 542.005L740.808 548.457C747.114 542.331 751.606 534.275 755.829 526.638C757.258 524.053 758.249 521.348 760.04 518.969Z"/>
	<path fill="#59EBFA" d="M760.04 518.969L759.761 518.195C761.905 517.658 764.05 517.742 766.246 517.73C770.717 519.466 773.411 522.066 775.998 526.043C776.291 540.575 774.215 555.887 770.106 569.824C768.714 570.882 768.313 571.686 767.594 573.25C758.638 592.737 744.805 610.147 728.68 624.211C725.762 626.756 722.398 630.2 718.714 631.51L717.646 631.869C720.875 626.275 724.523 620.56 728.305 615.322C734.512 606.723 753.097 585.975 751.716 575.566C751.209 571.745 746.353 569.461 743.503 567.426C738.107 563.576 736.978 558.189 735.868 552.054L736.019 540.828L737 542.345C737.972 542.3 738.749 542.264 739.694 542.005L740.808 548.457C747.114 542.331 751.606 534.275 755.829 526.638C757.258 524.053 758.249 521.348 760.04 518.969Z"/>
	<defs>
		<linearGradient id="gradient_12" gradientUnits="userSpaceOnUse" x1="742.85278" y1="540.8606" x2="768.83417" y2="543.5827">
			<stop offset="0" stop-color="#043553"/>
			<stop offset="1" stop-color="#0A5679"/>
		</linearGradient>
	</defs>
	<path fill="url(#gradient_12)" d="M760.04 518.969C763.554 520.221 766.259 522.227 767.824 525.716C771.808 534.596 770.694 543.003 767.199 551.718C765.645 555.594 761.685 564.281 757.866 565.89C756.27 566.562 752.442 564.882 751.019 564.103C744.666 560.626 742.717 554.958 740.808 548.457C747.114 542.331 751.606 534.275 755.829 526.638C757.258 524.053 758.249 521.348 760.04 518.969Z"/>
	<defs>
		<linearGradient id="gradient_13" gradientUnits="userSpaceOnUse" x1="440.85486" y1="470.16318" x2="553.74872" y2="359.08939">
			<stop offset="0" stop-color="#50C1FB"/>
			<stop offset="1" stop-color="#86EFFB"/>
		</linearGradient>
	</defs>
	<path fill="url(#gradient_13)" d="M440.606 287.286C457.01 281.718 471.846 275.575 489.378 274.277C492.928 274.014 497.311 273.538 500.625 275.064C501.908 275.654 502.544 276.43 503.368 277.546C503.466 279.742 502.718 280.997 501.195 282.638C497.33 286.803 489.252 287.878 484.02 290.03C480.873 291.324 477.974 293.116 475.224 295.103C476.597 296.69 477.645 297.787 479.516 298.765C478.307 300.117 476.854 301.417 476.492 303.25C477.216 305.089 477.804 305.728 479.641 306.508C486.565 309.45 494.117 309.964 501.261 312.08C500.512 314.049 499.493 316.154 499.121 318.225C500.422 320.882 501.795 323.392 503.618 325.733C507.775 331.07 513.204 335.074 512.89 342.5C511.466 344.465 509.944 344.929 507.538 345.278C503.193 345.906 494.733 344.902 491.603 347.75C491.465 349.842 491.626 350.612 492.976 352.25C495.637 355.479 498.85 358.271 501.526 361.5C506.828 367.899 513.318 381.933 522.5 382.561C525.164 382.744 527.796 381.765 529.955 380.25L530.442 378.811C530.731 391.802 537.719 402.891 546.868 411.698C562.718 426.957 583.95 434.178 605.775 433.576C612.55 433.389 618.735 431.73 625.275 430.218C628.653 434.921 632.114 437.467 630.94 443.915C630.637 445.576 630.017 446.61 628.544 447.472C622.937 450.752 614.872 450.844 612.675 458.307C611.491 462.331 612.315 467.362 614.463 470.932C616.033 473.543 618.977 475.691 621.953 476.359C626.827 477.454 632.912 475.959 637.411 477.75C637.4 479.811 634.807 482.408 633.365 483.843C628.605 488.58 622.477 491.136 618.249 496.638C614.074 502.069 612.934 508.991 608.379 514.411C605.119 518.289 601.088 520.57 597.015 523.444C589.168 528.983 585.532 537.859 585.452 547.262C585.422 550.814 585.592 554.037 586.345 557.5L586.521 558.358C587.049 560.836 587.999 563.169 588.918 565.521L587.249 565.731C579.102 562.706 545.535 544.934 542.222 539.241L539.703 542.407C539.529 541.404 539.501 541.754 539.644 540.841L539.755 540.25C536.36 538.425 533.244 535.533 530.126 533.25L511.827 520.073C508.983 517.838 506.443 515.243 503.681 512.914C497.853 507.997 490.889 501.968 486.868 495.454L486.592 495.367C485.645 493.5 483.114 491.77 481.657 490.138L473.676 480.34C464.762 469.034 456.794 456.859 450.15 444.094C450.202 442.455 450.962 441.462 451.424 439.968C451.973 438.196 451.481 437.481 450.75 435.918L448.512 435.151C449.806 436.647 450.763 437.14 450.584 439.25C450.371 441.749 447.964 444.115 446 445.41C442.448 447.752 438.336 449.321 434.25 450.458C430.528 451.494 426.634 452.043 423.425 454.358C416.66 459.237 414.838 469.495 410.076 476.255C405.049 483.391 395.809 487.172 393.734 496.226C393.232 498.416 392.969 500.879 393.082 503.12C393.292 507.305 395.249 513.087 391.187 515.897C388.999 517.411 386.248 517.938 383.646 517.308C379.485 516.3 376.368 509.96 373.671 507.004C372.06 505.238 369.801 503.757 367.732 502.586C365.583 501.369 363.572 500.822 361.264 502.047L360.4 502.565L360.055 502.529L359.6 502.09L359 501.485L358.454 500.948C355.624 497.698 353.691 491.678 351.925 487.632C343.169 467.565 337.31 448.285 334.822 426.5C334.151 420.626 333.425 414.891 333.489 408.961C333.495 393.851 334.394 376.775 339.566 362.44C336.115 359.942 332.467 359.357 328.358 359.547L328.57 358.955C329.099 357.42 330.158 356.256 331.135 354.975C335.106 350.339 339.116 345.727 342.378 340.552C345.978 335.808 353.051 323.654 352.396 317.991L352.509 317.76C355.374 314.909 359.501 312.581 362.845 310.323C377.981 300.102 393.895 291.144 410.762 284.113C415.852 281.991 421.195 279.579 426.5 278.122C427.299 279.015 427.464 279.771 427.653 280.933C428.183 284.193 429.48 286.421 430.488 289.463L430.745 290.25L431.25 289.755C431.921 289.64 432.46 289.531 433.087 289.252L433.625 289.002L435.5 288.377C437.134 287.535 438.8 287.502 440.606 287.286Z"/>
	<path fill="#022E9D" d="M364.866 330.549C366.627 330.509 367.427 330.695 369.018 331.451C371.165 333.855 371.917 337.56 371.903 340.75C371.885 344.937 369.659 348.116 366.83 350.989C361.765 356.133 357.207 357.331 350.14 357.379C347.662 357.088 344.483 356.892 342.511 355.25C341.872 353.632 341.482 350.238 342.141 348.576C342.719 347.119 344.346 345.375 345.329 344.148C350.439 337.771 357.125 333.142 364.866 330.549Z"/>
	<path fill="#121212" d="M418.31 324.588L436.976 324.541C444.577 324.641 453.269 328.358 458.557 333.903C466.501 342.233 467.679 349.555 467.433 360.679C465.969 363.63 463.489 367.014 460.348 368.409C458.68 369.15 455.476 368.094 453.5 368.529C451.93 368.875 450.502 369.986 449.008 370.561C445.103 372.065 439.465 371.449 435.751 369.558C434.457 368.899 433.411 367.722 433.151 366.255C432.062 360.112 442.303 360.068 444.902 355.5C446.96 351.882 442.992 345.06 441.998 341.25C440.169 339.798 437.312 340.538 435.094 340.683C434.606 340.716 434.062 341.011 433.629 340.783C431.847 339.846 430.536 337.299 428.464 336.168C426.31 335.9 422.38 336.142 420.599 337.514C419.81 339.121 418.974 340.832 417.75 342.155C416.651 343.343 414.665 344.449 413.818 345.75C411.157 349.835 419.377 355.442 420.038 359.448C420.291 360.98 420.08 362.256 419.141 363.5C417.716 365.388 415.223 366.481 413.174 367.555C408.179 370.173 403.112 372.517 397.5 373.381C395.928 372.694 395.911 372.501 395.032 371C394.746 364.635 401.609 361.747 404.131 356.477C405.238 354.164 405.439 351.472 406.32 349.067C407.178 346.728 408.5 344.567 409.411 342.25C410.288 340.019 410.561 337.514 409.492 335.324L408.863 334.076C408.381 332.72 408.805 331.701 409.497 330.5C411.516 326.996 414.549 325.45 418.31 324.588Z"/>
	<path fill="#F5FAFC" d="M486.868 495.454C493.178 488.797 502.034 484.173 511.309 483.957C521.519 483.719 530.657 486.172 538.154 493.435C545.186 500.246 548.662 508.576 548.706 518.311C548.741 525.775 546.217 532.985 542.222 539.241L539.703 542.407C539.529 541.404 539.501 541.754 539.644 540.841L539.755 540.25C536.36 538.425 533.244 535.533 530.126 533.25L511.827 520.073C508.983 517.838 506.443 515.243 503.681 512.914C497.853 507.997 490.889 501.968 486.868 495.454Z"/>
	<path fill="#022E9D" d="M440.606 287.286C457.01 281.718 471.846 275.575 489.378 274.277C492.928 274.014 497.311 273.538 500.625 275.064C501.908 275.654 502.544 276.43 503.368 277.546C503.466 279.742 502.718 280.997 501.195 282.638C497.33 286.803 489.252 287.878 484.02 290.03C480.873 291.324 477.974 293.116 475.224 295.103C472.654 296.519 470.155 298.799 467.75 300.527L451.263 312.594C449.034 314.222 445.48 317.012 442.739 317.453C435.919 318.549 429.325 315.515 422.651 315.763C417.454 315.957 412.375 317.24 407.278 318.163C405.361 318.51 402.288 319.303 400.373 319.023C399.358 318.874 397.591 317.238 396.655 316.614C393.772 314.69 390.319 314.963 387 314.441L386.914 313.75C389.507 310.836 392.697 310.776 396.348 310.1L396.594 309.66L396.985 309C401.481 300.89 431.067 291.816 440.063 287.548L440.606 287.286Z"/>
	<path fill="#59EBFA" d="M427.799 298.13C432.464 297.75 437.575 297.796 441.75 300.138C440.472 302.558 436.117 303.687 433.75 305.03L424.42 310.757L424.209 310.847C421.85 311.897 418.905 313.262 416.287 312.318C414.188 311.561 412.647 308.386 412.098 306.414C411.682 304.916 411.712 304.81 412.444 303.432C416.571 300.383 422.805 299.046 427.799 298.13Z"/>
	<defs>
		<linearGradient id="gradient_14" gradientUnits="userSpaceOnUse" x1="446.51266" y1="475.94202" x2="332.70401" y2="369.78589">
			<stop offset="0" stop-color="#010710"/>
			<stop offset="1" stop-color="#001570"/>
		</linearGradient>
	</defs>
	<path fill="url(#gradient_14)" d="M365.659 359.278C370.255 356.984 380.424 352.354 382.244 347.063C382.975 344.934 382.534 342.199 381.489 340.25C380.648 338.683 379.515 337.382 378.769 335.75C379.55 333.287 381.499 331.708 383.75 330.567C387.093 328.874 393.84 326.117 397.5 327.354C398.925 327.835 399.271 328.528 399.989 329.75C399.828 331.546 398.52 332.133 397.165 333.25C394.482 335.462 389.996 338.487 389.61 342.244C388.963 348.532 398.243 350.35 396.076 357.332C395.055 360.623 391.947 363.588 390.106 366.502C388.426 369.163 387.514 372.227 386.132 375.041C382.257 382.928 377.158 389.203 378.478 398.593C378.67 399.956 379.087 401.288 380.081 402.286C382.877 405.094 389.213 405.384 392.713 407.934C398.73 412.318 399.058 424.163 408.299 423.62C410.076 423.516 411.098 422.713 412.203 421.409C415.715 417.264 419.44 410.424 420.299 405.019C421.492 397.508 416.301 386.851 423.403 381.25C425.689 379.447 428.835 378.407 431.707 378.06C436.1 377.529 441.521 377.804 445.847 378.809C445.635 381.287 444.732 386.325 446.468 388.25C447.802 389.728 448.752 390.113 450.75 390.078C456.178 389.98 460.338 383.398 466.1 386.889C468.006 390.099 465.247 393.6 466.497 396.596C468.137 400.521 474.843 400.437 477.776 403.25C481.618 406.934 478.844 411.022 480.367 414.98C482.367 420.178 490.179 424.249 488.62 430.672C488.13 432.688 486.058 434.489 484.25 435.351C481.072 436.867 476.391 437.542 473.014 436.279C470.093 435.187 468.027 431.787 467.061 429C468.254 425.403 473.291 424.922 472.199 420.313C471.076 419.283 470.73 418.698 469.11 418.718C463.24 418.79 459.392 425.42 454.276 426.751C450.375 427.766 447.676 424.372 443.25 426.439C442.176 427.956 442.145 428.032 442.177 429.889C443.555 432.414 445.82 433.905 448.326 435.193L448.512 435.151C449.806 436.647 450.763 437.14 450.584 439.25C450.371 441.749 447.964 444.115 446 445.41C442.448 447.752 438.336 449.321 434.25 450.458C430.528 451.494 426.634 452.043 423.425 454.358C416.66 459.237 414.838 469.495 410.076 476.255C405.049 483.391 395.809 487.172 393.734 496.226C393.232 498.416 392.969 500.879 393.082 503.12C393.292 507.305 395.249 513.087 391.187 515.897C388.999 517.411 386.248 517.938 383.646 517.308C379.485 516.3 376.368 509.96 373.671 507.004C372.06 505.238 369.801 503.757 367.732 502.586C365.583 501.369 363.572 500.822 361.264 502.047L360.4 502.565L360.055 502.529L359.6 502.09L359 501.485L358.454 500.948C355.624 497.698 353.691 491.678 351.925 487.632C343.169 467.565 337.31 448.285 334.822 426.5C334.151 420.626 333.425 414.891 333.489 408.961C333.495 393.851 334.394 376.775 339.566 362.44L342.5 361.875C345.389 361.216 347.957 362.372 350.838 362.704C355.954 363.292 361.011 361.107 365.659 359.278Z"/>
	<defs>
		<linearGradient id="gradient_15" gradientUnits="userSpaceOnUse" x1="323.78827" y1="683.44916" x2="504.39056" y2="555.20282">
			<stop offset="0" stop-color="#032CA1"/>
			<stop offset="1" stop-color="#006FFD"/>
		</linearGradient>
	</defs>
	<path fill="url(#gradient_15)" d="M328.358 359.547C332.467 359.357 336.115 359.942 339.566 362.44C334.394 376.775 333.495 393.851 333.489 408.961C333.425 414.891 334.151 420.626 334.822 426.5C337.31 448.285 343.169 467.565 351.925 487.632C353.691 491.678 355.624 497.698 358.454 500.948L359 501.485L359.6 502.09L360.055 502.529L360.4 502.565L361.264 502.047C363.572 500.822 365.583 501.369 367.732 502.586C369.801 503.757 372.06 505.238 373.671 507.004C376.368 509.96 379.485 516.3 383.646 517.308C386.248 517.938 388.999 517.411 391.187 515.897C395.249 513.087 393.292 507.305 393.082 503.12C392.969 500.879 393.232 498.416 393.734 496.226C395.809 487.172 405.049 483.391 410.076 476.255C414.838 469.495 416.66 459.237 423.425 454.358C426.634 452.043 430.528 451.494 434.25 450.458C438.336 449.321 442.448 447.752 446 445.41C447.964 444.115 450.371 441.749 450.584 439.25C450.763 437.14 449.806 436.647 448.512 435.151L450.75 435.918C451.481 437.481 451.973 438.196 451.424 439.968C450.962 441.462 450.202 442.455 450.15 444.094C456.794 456.859 464.762 469.034 473.676 480.34L481.657 490.138C483.114 491.77 485.645 493.5 486.592 495.367L486.868 495.454C490.889 501.968 497.853 507.997 503.681 512.914C506.443 515.243 508.983 517.838 511.827 520.073L530.126 533.25C533.244 535.533 536.36 538.425 539.755 540.25L539.644 540.841C539.501 541.754 539.529 541.404 539.703 542.407L542.222 539.241C545.535 544.934 579.102 562.706 587.249 565.731L588.918 565.521C590.015 567.631 591.72 571.813 593.545 573.265C594.458 573.65 595.282 573.97 596.222 574.266C598.461 574.97 600.922 577.046 603.098 578.113C609.099 581.057 615.109 583.521 621.5 585.487C623.764 586.183 628.36 586.84 629.59 588.781C636.644 586.946 642.8 584.604 649.709 588.589C651.606 589.683 653.163 591.133 654.214 593.069C662.934 613.965 654.555 636.45 648.346 656.666C651.168 656.907 654.637 656.172 657.46 655.741C672.054 653.513 686.962 648.603 700.298 642.277C704.745 640.168 710.516 636.004 715.247 635.077L717.646 631.869L718.714 631.51C722.398 630.2 725.762 626.756 728.68 624.211C744.805 610.147 758.638 592.737 767.594 573.25C768.313 571.686 768.714 570.882 770.106 569.824C761.062 611.829 739.646 649.62 710.97 681.25C702.542 690.546 693.718 699.578 683.709 707.195L683.697 707.176L682.25 705.759L681.734 706.21C681.08 706.748 680.448 707.095 679.722 707.512L667 716.298L666.266 716.796L655.838 723.268C651.119 726.352 644.832 730.049 639.599 732.038C620.752 742.55 601.438 750.92 580.638 756.68C519.362 773.648 448.465 762.364 393.408 731.115C393.565 725.676 393.206 720.567 392.567 715.174L391.445 707.656C390.576 703.327 386.588 687.295 383.5 685.25C383.973 686.165 384.424 687.006 384.75 687.984C385.444 690.066 386.358 691.94 386.945 694.089C385.134 694.374 382.824 694.99 381.014 694.636C379.836 694.406 378.659 694.471 377.502 694.255C375.381 693.858 373.52 693.718 371.354 693.633L367.936 687.063L367.283 687.027L357.046 672.159C340.662 652.284 318.347 644.927 293.535 642.542L282.514 642.72C277.659 633.616 272.546 624.417 268.461 614.938C254.361 582.217 248.509 546.027 249.556 510.537C250.846 508.472 251.532 505.768 252.301 503.457L257.68 485.607C257.409 481.834 258.236 477.881 258.824 474.156C260.451 463.846 262.833 453.535 266.173 443.643C271.728 425.451 278.8 406.958 289.108 390.876C293.005 388.179 295.618 383.175 299.372 380.004C306.625 373.879 316.448 371.084 322.546 363.392C324.433 361.944 326.235 360.652 328.358 359.547Z"/>
	<path fill="#08C" d="M257.68 485.607C258.914 482.559 260.71 479.684 262.353 476.838C263.5 481.912 261.532 487.721 260.931 492.867L259.724 507.778C259.26 515.56 259.33 523.527 259.581 531.32C260.504 560.036 268.106 589.989 280.197 616.019L288.561 632.5C290.299 635.769 292.312 639.047 293.535 642.542L282.514 642.72C277.659 633.616 272.546 624.417 268.461 614.938C254.361 582.217 248.509 546.027 249.556 510.537C250.846 508.472 251.532 505.768 252.301 503.457L257.68 485.607Z"/>
	<path fill="#08C" d="M717.646 631.869L718.714 631.51C722.398 630.2 725.762 626.756 728.68 624.211C744.805 610.147 758.638 592.737 767.594 573.25C768.313 571.686 768.714 570.882 770.106 569.824C761.062 611.829 739.646 649.62 710.97 681.25C702.542 690.546 693.718 699.578 683.709 707.195L683.697 707.176L682.25 705.759L681.734 706.21C681.08 706.748 680.448 707.095 679.722 707.512L667 716.298L666.266 716.796L655.838 723.268C651.119 726.352 644.832 730.049 639.599 732.038L639.488 731.276L631.625 735.375L631.942 733.396L635.2 731.795L634.75 731.396L613 739.849L604.859 742.562L602.268 743.297L598.75 744.289L597.503 744.545L588.718 746.681C587.957 746.807 587.465 747.07 586.75 747.291C585.449 747.692 584.082 747.879 582.75 748.283L576.282 749.667C575.505 749.799 574.982 750.058 574.25 750.282L572.268 750.645C571.465 750.785 570.773 751.025 570 751.268C569.156 751.533 568.534 751.617 567.647 751.688C566.48 751.782 566.975 751.625 566 752.259C564.778 752.251 564.154 752.731 563.065 752.737C562.222 752.742 561.917 752.854 561.208 753.25L560.5 752.81C559.399 753.409 559.572 753.553 558.25 753.294L557.844 753.524C557.11 753.863 556.533 753.788 555.75 753.755L555 754.255C553.809 754.255 553.524 754.072 552.5 754.755C551.437 754.755 551.446 754.624 550.5 755.255C549.309 755.255 549.024 755.072 548 755.755C546.809 755.755 546.524 755.572 545.5 756.255C544.309 756.255 544.024 756.072 543 756.755C541.933 756.755 541.534 756.471 540.75 757.255C539.619 757.255 539.484 757.099 538.5 757.755C537.309 757.755 537.024 757.572 536 758.255C534.756 758.255 534.066 758.044 533 758.755C531.933 758.755 531.534 758.471 530.75 759.255C529.63 759.255 528.563 758.942 527.75 759.755L526.003 759.645L526.638 758.743L526.357 757.256C526.979 757.119 527.459 757.194 527.843 756.632C528.425 755.782 528.585 754.755 528.815 753.768L529.689 753.343C530.004 752.463 530.252 751.686 530.442 750.765L531.401 750.511C532.457 748.561 532.141 747.82 531.856 745.665C531.649 744.101 531.726 742.499 531.747 740.926C537.085 741.243 544.611 741.986 549.802 740.764C551.583 740.344 553.621 740.553 555.502 740.245C557.05 739.992 558.414 740.053 560.002 739.708C561.206 739.446 562.5 739.449 563.751 739.189C565.714 738.782 567.539 738.705 569.502 738.176L579.849 735.861C581.67 735.397 582.797 735.093 584.184 733.806L610.426 723.757C611.337 722.935 610.862 723.281 611.977 722.631L617.003 719.503C619.866 718.329 623.972 716.457 626.353 714.534L627.003 714.003L627.75 713.755C628.314 713.441 628.376 713.039 629.111 712.743C629.749 712.486 630.187 712.269 630.753 711.875L632.003 711.003C634.752 709.665 637.208 707.497 639.75 705.755L641.25 704.755C643.017 703.171 642.751 701.903 642.755 699.75C640.685 698.881 637.078 697.478 636.162 695.249L636 694.75L635.078 693.337C634.892 692.897 634.847 692.406 634.662 691.966L634.472 691.537L635.143 691.074L634.69 687.017C636.659 676.529 643.872 666.833 647.983 657.03L648.346 656.666C651.168 656.907 654.637 656.172 657.46 655.741C672.054 653.513 686.962 648.603 700.298 642.277C704.745 640.168 710.516 636.004 715.247 635.077L717.646 631.869Z"/>
	<path fill="#121212" d="M732.195 637.75L732.79 638.152C731.549 642.017 729.361 645.722 727.537 649.35C725.12 654.157 722.752 659.366 719.541 663.687C714.004 671.138 701.974 679.74 692.75 681.072L691.598 680.676L691.593 680.211C691.83 678.366 694.414 675.408 695.585 673.883C705.8 660.573 718.92 647.981 732.195 637.75Z"/>
	<path fill="#121212" d="M648.346 656.666C651.168 656.907 654.637 656.172 657.46 655.741C672.054 653.513 686.962 648.603 700.298 642.277C704.745 640.168 710.516 636.004 715.247 635.077C708.111 647.465 699.441 658.187 689.981 668.856C678.588 681.706 667.556 694.837 650.171 699.382L649.342 699.589C646.623 699.543 643.821 699.379 641.302 698.25C638.05 696.793 636.442 694.262 635.143 691.074L634.69 687.017C636.659 676.529 643.872 666.833 647.983 657.03L648.346 656.666Z"/>
	<path fill="#08C" d="M452.403 703.557L451.827 703.813C450.351 704.267 447.229 702.6 445.722 702.039C433.784 697.593 422.466 692.458 411.5 685.94C388.609 672.335 366.974 656.454 348.802 636.863C332.863 619.679 320.292 600.297 310.367 579.115C304.598 566.801 299.168 554.233 295.861 541.003C293.604 531.972 292.229 522.536 291.688 513.25C291.555 510.981 290.891 507.543 292.099 505.547C296.239 511.609 301.417 517.155 305.134 523.442C308.721 529.511 310.146 537.103 314.3 542.768C315.954 545.022 318.406 546.72 320.655 548.343C324.604 551.195 328.535 553.234 333.25 554.538L334.056 554.77C338.973 556.083 344.165 554.959 349.036 556.425C354.085 557.945 356.041 562.714 360.252 565.236C362.193 566.398 364.334 566.443 366.525 566.641C372.589 567.19 375.41 568.68 378.571 574C380.548 577.325 383.763 584.721 387.787 585.921C388.827 586.232 390.103 585.841 390.962 585.249C391.766 584.695 392.072 584.09 392.495 583.25C392.237 580.619 390.74 578.433 389.463 576.179C387.45 572.624 384.955 568.529 384.128 564.463C383.587 561.802 385.136 558.89 382.779 556.971C377.341 552.544 367.988 556.606 362.614 550.5C362.232 546.909 364.525 543.558 366.724 540.857C369.795 537.085 372.853 535.193 377.75 534.681C382.422 534.192 387.035 534.727 391.697 534.978C392.99 535.047 395.399 534.866 396.54 535.239C398.552 535.896 401.77 538.808 403.747 539.983C406.641 541.704 410.177 543.006 412.886 544.917L413.079 545.192C414.268 547.957 417.057 550.016 419.258 552.024L436.334 566.542C438.183 568.039 440.79 569.293 442.053 571.313C432.958 568.312 424.231 567.855 415.455 572.367C410.28 575.029 404.355 580.267 402.413 585.891C400.742 590.73 403.663 596.427 401.91 601.304C400.534 605.13 396.879 605.677 394.314 608.322C388.056 614.773 390.366 625.738 394.233 632.71C397.006 637.711 401.112 642.039 405.215 645.982C411.191 651.725 417.823 656.327 424.544 661.131C429.242 664.489 433.686 667.929 437.483 672.322C445.075 681.105 449.077 692.6 452.403 703.557Z"/>
	<path fill="#08C" d="M545.291 634.68C546.101 636.642 549.462 637.427 551.421 638.25C581.885 651.044 614.851 658.385 647.983 657.03C643.872 666.833 636.659 676.529 634.69 687.017L635.143 691.074L634.472 691.537L634.662 691.966C634.847 692.406 634.892 692.897 635.078 693.337L636 694.75L636.162 695.249C637.078 697.478 640.685 698.881 642.755 699.75C642.751 701.903 643.017 703.171 641.25 704.755L639.75 705.755C637.208 707.497 634.752 709.665 632.003 711.003L630.753 711.875C630.187 712.269 629.749 712.486 629.111 712.743C628.376 713.039 628.314 713.441 627.75 713.755L627.003 714.003L626.353 714.534C623.972 716.457 619.866 718.329 617.003 719.503L611.977 722.631C610.862 723.281 611.337 722.935 610.426 723.757L584.184 733.806L568.5 737.431C551.224 740.721 533.216 741.477 515.778 739.065L497.488 736.105C493.973 735.448 489.634 733.96 486.096 734.168C483.099 730.311 482.175 726.361 481.279 721.682C481.997 719.492 482.695 717.74 484.061 715.874C487.758 712.152 492.185 710.24 496.802 707.909C499.285 706.655 501.655 705.137 503.165 702.712C506.326 697.633 506.636 691.584 510.912 686.94C517.727 679.537 529.621 678.298 534.795 669.301C538.096 663.561 536.214 657.454 537.993 651.581C539.331 647.165 542.475 643.469 543.901 638.997L545.291 634.68Z"/>
	<path fill="#05416F" d="M484.061 715.874L484.467 716.013C489.142 717.703 495.275 717.849 500.22 718.351C532.091 721.584 564.926 717.409 595.071 706.543C606.575 702.397 617.815 697.071 628.457 691.053C630.197 690.069 633.858 688.775 634.69 687.017L635.143 691.074L634.472 691.537L634.662 691.966C634.847 692.406 634.892 692.897 635.078 693.337L636 694.75L636.162 695.249C637.078 697.478 640.685 698.881 642.755 699.75C642.751 701.903 643.017 703.171 641.25 704.755L639.75 705.755C637.208 707.497 634.752 709.665 632.003 711.003L630.753 711.875C630.187 712.269 629.749 712.486 629.111 712.743C628.376 713.039 628.314 713.441 627.75 713.755L627.003 714.003L626.353 714.534C623.972 716.457 619.866 718.329 617.003 719.503L611.977 722.631C610.862 723.281 611.337 722.935 610.426 723.757L584.184 733.806L568.5 737.431C551.224 740.721 533.216 741.477 515.778 739.065L497.488 736.105C493.973 735.448 489.634 733.96 486.096 734.168C483.099 730.311 482.175 726.361 481.279 721.682C481.997 719.492 482.695 717.74 484.061 715.874Z"/>
	<defs>
		<linearGradient id="gradient_16" gradientUnits="userSpaceOnUse" x1="371.74799" y1="589.42719" x2="321.23785" y2="361.10657">
			<stop offset="0" stop-color="#020300"/>
			<stop offset="1" stop-color="#011063"/>
		</linearGradient>
	</defs>
	<path fill="url(#gradient_16)" d="M328.358 359.547C332.467 359.357 336.115 359.942 339.566 362.44C334.394 376.775 333.495 393.851 333.489 408.961C333.425 414.891 334.151 420.626 334.822 426.5C337.31 448.285 343.169 467.565 351.925 487.632C353.691 491.678 355.624 497.698 358.454 500.948L359 501.485L359.6 502.09L360.055 502.529L360.4 502.565C360.607 505.465 363.46 508.675 365.094 511.043C369.94 518.064 374.425 524.804 380.558 530.799C388.049 529.545 397.388 526.348 404.25 531.031C406.663 532.678 408.455 535.084 410.75 536.839C413.454 538.909 418.754 538.849 421.982 538.379C424.66 537.989 429.934 536.462 432.247 538.029C433.054 538.575 434.127 539.606 434.254 540.608C434.461 542.233 433.639 544.021 432.519 545.178C430.66 547.099 428.156 547.49 425.587 547.393C421.36 547.232 417.112 546.437 413.079 545.192L412.886 544.917C410.177 543.006 406.641 541.704 403.747 539.983C401.77 538.808 398.552 535.896 396.54 535.239C395.399 534.866 392.99 535.047 391.697 534.978C387.035 534.727 382.422 534.192 377.75 534.681C372.853 535.193 369.795 537.085 366.724 540.857C364.525 543.558 362.232 546.909 362.614 550.5C367.988 556.606 377.341 552.544 382.779 556.971C385.136 558.89 383.587 561.802 384.128 564.463C384.955 568.529 387.45 572.624 389.463 576.179C390.74 578.433 392.237 580.619 392.495 583.25C392.072 584.09 391.766 584.695 390.962 585.249C390.103 585.841 388.827 586.232 387.787 585.921C383.763 584.721 380.548 577.325 378.571 574C375.41 568.68 372.589 567.19 366.525 566.641C364.334 566.443 362.193 566.398 360.252 565.236C356.041 562.714 354.085 557.945 349.036 556.425C344.165 554.959 338.973 556.083 334.056 554.77L333.25 554.538C328.535 553.234 324.604 551.195 320.655 548.343C318.406 546.72 315.954 545.022 314.3 542.768C310.146 537.103 308.721 529.511 305.134 523.442C301.417 517.155 296.239 511.609 292.099 505.547L289.642 500.48C287.86 495.769 286.701 490.733 285.159 485.928C284.748 484.647 283.354 481.643 283.404 480.519C283.491 478.549 285.373 475.414 286.225 473.588C283.263 469.26 286.909 445.642 285.685 438.891C278.973 447.179 273.262 456.977 268.069 466.261C266.168 469.661 264.53 473.656 262.353 476.838C260.71 479.684 258.914 482.559 257.68 485.607C257.409 481.834 258.236 477.881 258.824 474.156C260.451 463.846 262.833 453.535 266.173 443.643C271.728 425.451 278.8 406.958 289.108 390.876C293.005 388.179 295.618 383.175 299.372 380.004C306.625 373.879 316.448 371.084 322.546 363.392C324.433 361.944 326.235 360.652 328.358 359.547Z"/>
	<path fill="#08C" d="M295.917 426.509C297.624 428.34 301.301 429.576 303.478 431.017C302.456 435.823 299.639 440.129 298.217 444.864C296.663 450.039 296.656 455.85 294.468 460.817C293.394 463.256 291.482 465.323 289.909 467.456C288.497 469.37 287.37 471.508 286.225 473.588C283.263 469.26 286.909 445.642 285.685 438.891C288.158 434.51 292.493 430.17 295.917 426.509Z"/>
	<path fill="#59EBFA" d="M266.173 443.643L266.455 443.856C268.123 445.167 270.414 445.671 272.5 445.615C276.104 441.697 276.897 435.261 280.07 430.915C282.157 428.057 287.539 422.699 291.1 422.475C293.043 422.352 294.16 423.078 295.51 424.331C296.11 424.888 295.885 425.718 295.917 426.509C292.493 430.17 288.158 434.51 285.685 438.891C278.973 447.179 273.262 456.977 268.069 466.261C266.168 469.661 264.53 473.656 262.353 476.838C260.71 479.684 258.914 482.559 257.68 485.607C257.409 481.834 258.236 477.881 258.824 474.156C260.451 463.846 262.833 453.535 266.173 443.643Z"/>
	<path fill="#08C" d="M360.055 502.529L360.4 502.565C360.607 505.465 363.46 508.675 365.094 511.043C369.94 518.064 374.425 524.804 380.558 530.799L368.222 532.707C363.069 533.947 357.556 535.896 354.715 540.651C353.941 541.945 353.192 543.066 352.25 544.245C350.945 544.815 350.002 545.013 348.562 544.984C345.203 544.918 342.311 543.761 340.086 541.193C336.651 537.228 336.322 532.538 336.75 527.526C337.141 522.938 337.917 515.452 341.711 512.342C344.24 510.268 348.417 509.069 351.417 507.758C354.177 506.552 357.213 505.095 359.477 503.07L360.055 502.529Z"/>
	<path fill="#121212" d="M452.403 703.557C449.077 692.6 445.075 681.105 437.483 672.322C433.686 667.929 429.242 664.489 424.544 661.131C417.823 656.327 411.191 651.725 405.215 645.982C401.112 642.039 397.006 637.711 394.233 632.71C390.366 625.738 388.056 614.773 394.314 608.322C396.879 605.677 400.534 605.13 401.91 601.304C403.663 596.427 400.742 590.73 402.413 585.891C404.355 580.267 410.28 575.029 415.455 572.367C424.231 567.855 432.958 568.312 442.053 571.313C448.638 575.063 454.666 580.19 461.355 583.574C464.243 585.035 467.47 585.604 470.537 586.587C474.56 587.876 478.343 589.695 481.762 592.186C484.689 594.317 487.384 596.9 489.57 599.79C492.718 603.95 495.619 609.13 500.333 611.715C505.528 614.562 512.277 614.945 517.999 616.146C522.072 617.001 525.993 618.254 530 619.355C535.45 620.852 544.099 621.765 545.42 628.75C545.776 630.634 545.526 632.788 545.291 634.68L543.901 638.997C542.475 643.469 539.331 647.165 537.993 651.581C536.214 657.454 538.096 663.561 534.795 669.301C529.621 678.298 517.727 679.537 510.912 686.94C506.636 691.584 506.326 697.633 503.165 702.712C501.655 705.137 499.285 706.655 496.802 707.909C492.185 710.24 487.758 712.152 484.061 715.874C482.695 717.74 481.997 719.492 481.279 721.682C482.175 726.361 483.099 730.311 486.096 734.168C488.311 737.506 494.498 742.991 494.799 746.819C493.769 747.96 492.954 748.596 491.463 749.06C487.65 750.247 483.15 748.792 479.73 747.064C464.493 739.365 457.335 718.697 452.403 703.557Z"/>
	<defs>
		<linearGradient id="gradient_17" gradientUnits="userSpaceOnUse" x1="384.25604" y1="592.39575" x2="636.8194" y2="527.37744">
			<stop offset="0" stop-color="#0296F9"/>
			<stop offset="1" stop-color="#72D7FA"/>
		</linearGradient>
	</defs>
	<path fill="url(#gradient_17)" d="M448.512 435.151L450.75 435.918C451.481 437.481 451.973 438.196 451.424 439.968C450.962 441.462 450.202 442.455 450.15 444.094C456.794 456.859 464.762 469.034 473.676 480.34L481.657 490.138C483.114 491.77 485.645 493.5 486.592 495.367L486.868 495.454C490.889 501.968 497.853 507.997 503.681 512.914C506.443 515.243 508.983 517.838 511.827 520.073L530.126 533.25C533.244 535.533 536.36 538.425 539.755 540.25L539.644 540.841C539.501 541.754 539.529 541.404 539.703 542.407L542.222 539.241C545.535 544.934 579.102 562.706 587.249 565.731L588.918 565.521C590.015 567.631 591.72 571.813 593.545 573.265C594.458 573.65 595.282 573.97 596.222 574.266C598.461 574.97 600.922 577.046 603.098 578.113C609.099 581.057 615.109 583.521 621.5 585.487C623.764 586.183 628.36 586.84 629.59 588.781C636.644 586.946 642.8 584.604 649.709 588.589C651.606 589.683 653.163 591.133 654.214 593.069C662.934 613.965 654.555 636.45 648.346 656.666L647.983 657.03C614.851 658.385 581.885 651.044 551.421 638.25C549.462 637.427 546.101 636.642 545.291 634.68C545.526 632.788 545.776 630.634 545.42 628.75C544.099 621.765 535.45 620.852 530 619.355C525.993 618.254 522.072 617.001 517.999 616.146C512.277 614.945 505.528 614.562 500.333 611.715C495.619 609.13 492.718 603.95 489.57 599.79C487.384 596.9 484.689 594.317 481.762 592.186C478.343 589.695 474.56 587.876 470.537 586.587C467.47 585.604 464.243 585.035 461.355 583.574C454.666 580.19 448.638 575.063 442.053 571.313C440.79 569.293 438.183 568.039 436.334 566.542L419.258 552.024C417.057 550.016 414.268 547.957 413.079 545.192C417.112 546.437 421.36 547.232 425.587 547.393C428.156 547.49 430.66 547.099 432.519 545.178C433.639 544.021 434.461 542.233 434.254 540.608C434.127 539.606 433.054 538.575 432.247 538.029C429.934 536.462 424.66 537.989 421.982 538.379C418.754 538.849 413.454 538.909 410.75 536.839C408.455 535.084 406.663 532.678 404.25 531.031C397.388 526.348 388.049 529.545 380.558 530.799C374.425 524.804 369.94 518.064 365.094 511.043C363.46 508.675 360.607 505.465 360.4 502.565L361.264 502.047C363.572 500.822 365.583 501.369 367.732 502.586C369.801 503.757 372.06 505.238 373.671 507.004C376.368 509.96 379.485 516.3 383.646 517.308C386.248 517.938 388.999 517.411 391.187 515.897C395.249 513.087 393.292 507.305 393.082 503.12C392.969 500.879 393.232 498.416 393.734 496.226C395.809 487.172 405.049 483.391 410.076 476.255C414.838 469.495 416.66 459.237 423.425 454.358C426.634 452.043 430.528 451.494 434.25 450.458C438.336 449.321 442.448 447.752 446 445.41C447.964 444.115 450.371 441.749 450.584 439.25C450.763 437.14 449.806 436.647 448.512 435.151Z"/>
	<path fill="#121212" d="M593.545 573.265C594.458 573.65 595.282 573.97 596.222 574.266C598.461 574.97 600.922 577.046 603.098 578.113C609.099 581.057 615.109 583.521 621.5 585.487C623.764 586.183 628.36 586.84 629.59 588.781C626.012 589.719 620.731 590.132 617.1 589.229L616.5 589.067C606.786 586.511 599.715 581.065 593.545 573.265Z"/>
	<path fill="#DBE8FA" d="M486.592 495.367L486.868 495.454C490.889 501.968 497.853 507.997 503.681 512.914C506.443 515.243 508.983 517.838 511.827 520.073L530.126 533.25C533.244 535.533 536.36 538.425 539.755 540.25L539.644 540.841C539.501 541.754 539.529 541.404 539.703 542.407C539.549 542.99 538.662 543.868 538.278 544.321C531.938 551.819 522.57 555.811 512.911 556.383C503.467 556.943 494.299 553.782 487.293 547.402C479.987 540.75 476.074 531.401 475.63 521.598C475.153 511.091 479.683 502.849 486.592 495.367Z"/>
</svg>
